<mxfile host="drawio-plugin" modified="2022-02-04T13:24:55.572Z" agent="5.0 (Windows NT 6.2; Win64; x64) AppleWebKit/537.36 (KHTML, like Gecko) Chrome/89.0.4389.114 Safari/537.36" etag="cB05TA3h5M6U2c_G-k7t" version="15.5.4" type="embed"><diagram id="fwsmK2YAQeflSiELSZGe" name="Page-1"><mxGraphModel dx="1277" dy="159" grid="1" gridSize="10" guides="1" tooltips="1" connect="1" arrows="1" fold="1" page="1" pageScale="1" pageWidth="827" pageHeight="1169" math="0" shadow="0"><root><mxCell id="0"/><mxCell id="1" parent="0"/><mxCell id="QXStlDiSbk9Rq0q8Sx9F-1" value="" style="shape=image;verticalLabelPosition=bottom;labelBackgroundColor=default;verticalAlign=top;aspect=fixed;imageAspect=0;image=data:image/png,iVBORw0KGgoAAAANSUhEUgAAA4sAAAKfCAYAAADHI11aAAAgAElEQVR4nOzdeXxV1b3//9c+5+QkOUlIGE7mkQzMQwCDiMhQBK2KCP606rfar9ZOtt722tvefh9t7bX3qx1s1V6vt3q997ZW689aRRRHUARkEGUSCHMmMDMJmZOTc876/pEQMpwwJJgEeD//4XH2Xnudz157h8f+nLX2Wlb29MsMvcgYnQpAbm5ub0VERERERETkImQb7ABERERERERk6FGyKDKEGMdIUmcu5carJ2M3vXb6X3CMsZN59d3MnzmWSMfFc14iIiIiFzPHYAcgMtDMsJH8n3vTmGGqefLZw6yttQY7JADCRl/Ddbdcz9hRwfj3PceqwQ7ovLIIS57JnHGzyJm/k4/+9hwb8+oGOygREREROQ17XHzCL3rbOWJ4FAAVFRUDFpDIFy3iiiz+MH84o9xRDK88yhsFg9/T5RpzG3fe82WSHSXsWPWfvPzWNpr8QyOJPR8sy0/Jni0U1QWTOD6HiZdNJvTopxw57hns0ERERESkFw6AyIhwwsJctLZ6afW2duxsaGgAwO12Bzw4KCiIoKAgCgsLT/sll0938q04wxsfenilvv8PwMYYxqY7uDXVTmIIBNvb6jQVXu7d7KXVGroP2caE8L0HZ/GtxAp+cu9u3hjCsV4ojHGQsziDH8wbReaIIELb7wdy9zHj98U0d2vjuv0VbK6OZCon+GC/F+i6f9TCqXx464huX9LM87/eyK+OnP/rZcJnseSO+bi9R1jz1KNsLvH1iKlLeRNOyvxbWThrAu6o8FP3/8EXeOTptXiH6D1ltVZSsPE5ns0r46vfWU7OHXdx7DdPsrdhaMYrIiIicqlzAISFuXC5XL0WCgsLG7CAzoYrLoj7x9twNhl2HDM0n9xRZ/APZmAyKCIuy+Lxm2MIqapm7eYmGk92FBY34g1Q3iop5t4fFZ/81GN/07HjvLqhqeNzdEYsV8ae97ABMMYibfFNZIZ6yF/xTHuieHrBU27nlutmEFR9mAPbSvGcPN+y4gvi/veVvMur70zkvqVT+NKiLHJfPYgZogmuiIiIyKXMAdDa2tab2NDQQGNj41kf7HK5BiWRTBlpEYZh3S4P/1PZ7SFTD52XnAljooiklVee28GDuf2/Hxr2H+Xn+099nvc19xeWLGIbx8RJUdC4iU2bqzhdj+JJcekZhNLA9r//ljcPdhtCe4Hc/zWb3yV30RgmT55FymsHGQIjgUVERESkm7Zk0dvW/9LY2HhO7ye63e4uyaKxLGaNtbMkwUZMENTW+/gg1095L90dxhgS4h0sT7cxJsIiFDhe62drno/Xiv29DqcLtgNYeM7cCXNOjLEz6arR3DdvFJNjgwnDS0VpDWs/yOeJj+po6BSPSc/ggx8nEbJpF7P/VNWlnnlfu5Inr/B3DFs0JpJfPjaNZRGdzyeaR579Eo902rLtpQ3ctebUMGBjbGTOTOV7C6OZHheCCy9ln1fzzvt5PLW1sctwW2NC+PZPZ/Hd5HJ+9JMyJt41mutHuwg3HvIPlvLM3/J5t7zvT+QmPpVVv0gjYfteFq8P5afLEsiJc2JvamT7J/n86u/lFPj6F8+5tH9noUE2wE9Ty2niPzn8N6lrHd3bvD/O5Xp1iM4kKQy8u/dR4OdsckWCnE6ghVZP7weY1Fv5/n1fIujTf+PRl3Z32Zdx6+PcNqOFj//9R7xX0D6ENfZG7nvgOqJ2P8uT25K4/trLSRoRgqemhKPbV/Lu+3uo6/YOpTFOYmYsYd7saSTFjsDpr6Ou8iiHNr/B+q15NJnTnIxvH3l5XiZPTCc1GgrKei8aMuZm7vjKfNxWCZ+++HvWHDj7H7REREREpO/O22yoxhgmTAjiW2kWptWwv9xPrc1iwXQ7R04EKm+RnBHET8dZOD2GfeU+arFIHmnj+uk2MkNb+fURP37LwhiL7Ew709pHyg4f2fYQOi49iLs7z49R5+fPeT58fehdMcZiyk3Z/PeXIwhuauTTvWVUGCfjx47i9ruGM3XEdm5/va6P74O18tmOUkJDAOykT3CT5Wph5yfVlHQqlVdyKqs2xmLstVP4y7Ioghsa+CS3lOPGydgxbu69dyTZUdu45736AOfqZPk940lzVvHJzgaGJQ0nZ3IKj6YE4/uXXNb0953R8Bh+dW8EriPVrD/uZPyY4Vz5pYk87djODc+fwNPHeM6l/Y1xsOD6dOaPbPuG6NF2wEbONWN5qPMEm8WlPLT6RPs187J3WzGvFrTtCo4byXUZIf1ri076fL0iIwkDGmur8fdybxkTTtbVyxgzvO1zRIoTsJM29y6uv6xTwbItvLXuQK/1nJWwWSy9NR5H/iEOlkeQkJnFuEX3Ex36W/648lBH3cbYib/6h9y5OBWnp5Kig9uo8YXiHj2enJvHk5nyHzz70s4e74ueZFk+amrqgGGERQKnSRaTp80hIcIJpDBtWiZrDuzq+/mJiIiIyFk7f0tnOB3ckGKBx89/ftjKJk/bQ6Iz0s6PZgX6ZoubMy2Cm3z8bp2X3d72h1CHxdfnBjEny05OoZ8t7b2HafE25kZ2ffBMirOT1OmzqTD8JQ/61OEYFs13F0UQ0lDBzx7ay4rqtl4vW2Q0T/xiAvOvTWPJms94tekM9QRgWY38/S/7+Dsne7jcZLlqeemZ3N4nuHG5+Yfrogg9Xsx3frmfDY3t7eMazv/92VSWLkll8YY9vNXc7TgrEvexHSz56wnqLQtjObj23hwenRHLN67KZ02PA86NIyWYXb//mD/kt7VyR/vMSWX5yp28WN/HeM6p/R1MmB7Psm69hFlTE8jqvCG3lodXn8ALWJaXtW8eYG37rlELp57XZLHP1ys4GCfQ6DnddXERP/lKpsV3Pt8gYibNIabTFnOwiHfWHejXe4u2xDCK/vgzPjza9iuMbeQCbv/BV0ibfQ3jVh1i78nKQy9n/sJUnI17WPXEv7Ojqu1+MCFZXPsPD3DZZTeRs3Yn608zUMHjaQGG4Qw+fUwFWz+gIHUe0RTz6daD/Tg7ERERETkXAZPF8ePH93pAbm5u4B0RkGCD+lJfR6II0HLCy9ZaOxndJpckymK0A8oL/R2JIoDlNawtNsxJt8iKhC1VYFmGFes9rGgvM2VyED9Itli9sYUXqs/TO4upkYx3wImPizsSFQB/TTl/35nF/NmRTEmDV3s5/fMuJZJJwXBs/ecdiQeA1VjN37Y3svTqKKYlw1s9np3rWbW6LTEDsIyXt9dW8OMZiWSmRAD9SxZtRaX8Kc/b0c6n2iecjATgQB/jOYf2t6xmnnxoLU+2l+k+7LeLgXqHr8/X68wsq5x1v/8G69o/BxpG2qlw388BsD7fysdFLR31+CrXsevwLaRNiMYdDZS2F0xOJ94OTXs/6EgUAazmg3z8/noiJgyjNRw4D6vueI6s5LlHVva/IhERERE5J+exZ9EiDKjotmyaZVnUBnqXzAGhACPt3D25666QYW0PqmFB5y26Mwu24wI+r+u57ltFXSsQQugZekDOq1AHYQCZSTx0Z9e+IldiEGBnWMC5hVqoqO62qayad3Y6iS/0YDOmX8MUPXUearsd39Y+oQwL70c8Q639z1Wfr9fQ4quvpanT9bUsH01NzUAwzs4dse09oifqa3vUUf3pC7z8KZzVC5giIiIiMmQFTBZ77T08nywLCxg23M7c4T13G2MG9lnTdqYCFtYZy5xH7d81PC2OZWkB9hv/Wcdj1Vby66cq2z8M/gN8wHiGWvufq75eL+PHwJC4LgPOsgA/RjOhioiIiAxJ569n8VwZgwEK9nl48HBvT4sD+AB9xhe9DMbf7fMZj+h/PLmvbeKWN3sbOnoRJRjn3P5DTF+vV4uHViDEdZ67Hc/i5hvsJM3lCgOaaenfyGgRERER+YJ06euwzrF3o0v5VkMjEO7sWsYYw7BAwwe90BSg/KBp8dEIDI/oGZA7IgjwdV2aoclPIxAxzImz01O3MTbcwxyAl4b+zPDf5KUBiAoQz2ByRjgZ1i3LaGufVmrqAh9zVs61/Yeavl6vsjKqAFd0AmHnM3trbsYDhIRHYe9yfwYREREKNNPanyStpQUP4Aof1mPXiJw7ue2e73Ll6N7/PzFmGDExYUAl1aeZCVVEREREBo8NwGazAxAVFYXdbj/jQZZlkZCQQFRU1KmNtYbP/RAea+cK56mHU2ekgysiA1RSYzjihZHxdrKDOj3MWhZLZjt55loHi0IGsOsjv5a9XoiaGs9Nw0895Noio7l5ahC0nmBHfqfyJSf4rB5sY+L4WsKpnDs4KYnlYy2oq2FbKQG0UtsEEMTwns/ZpxTWsKsF4rMTWBDeqX3sLr714zl88m9TuXP4wHcNeZNjuCvt1D3S0T7+eo4U96Pic23/AVTZ4AUcxI48zd9GX69XTS6FFWAlT2NCoL+Tvio/xLFGsDJmMyv21AACR9wipmVYUH+EgvJ+1H/0CMU+CJ2wgOwRp9rFhIzh8vmzyRgzEqvuNF3BUTmMSbKg4gBHer722IUzfQl3/vNj/PAn/8S89NB+BC0iIiIi58IB4PN68fv9OBwOUlJSKCwsxOcLvACF3W4nKSkJl8uFMYbm5vbuCY+P14vsjE21ce98J3Mq29ZZzBxuUVoDdJ8NtdXHKwftjBtv4/75TvZVGWq84B5pIyMUygr9bGpi4EZaNpbx5LuJTL/OzUO/yGHJ/hrKCWbC2BGkhvrY+3oBqxpPxWOZap5ZeZx5d4zk/p/M5Mp9NZRZIUwZF0W8vZV1KwrZHGBRcsvysWV/Hd7MKL79T1OZdrRtGCJ42bDyIK+Xtx/TWMEfVp3gsuWxPPbLCD45WEdlq53EjBFMHWGj8KOjvFHFgI9EbT7SzPTvX85fD1dz1Ne2zmKaCz5fV8Ardf2I5xzb/1yZ5FgenBfZMe46OK5t0c6k6Rk8FH8yqWni3ZcL2djU9Uv2by+naGEKC26fwb9PPMHxjtl7a3n5z8Xstqw+Xy/LOsb2LYfJuSGDWTdMY/fz27tMMNNXlsnlo3f2MmbZBObf/0vSD+ZRy0gSx6QTZavn0NtvURDg/jxrjVtYu2YuSYsncv0Dv2TyoTxqfC7co8cTG26o3rqCT8oJeL2MCWf8DYtJsnkp3LyeijOcb9rMhaSOCgWyyMnJ4sMjWmdRREREZCA4AGrq6qlvbCI+LoaQkBBSU1MpKCjokTA6nU6Sk5NxOp14vV6Kioo6kkXLsti718sffXaWJFhkxdipb/CzYaeXY0lBdF+Mw7Isio54+JcmB8vTbYwZZSMEQ3WD4f3DPlYW+DqWWxgIlmX47LUdfK16NPfNczN1YizZ+KgsreCvawt4YkNd++LupxR+uJs7G9P4h0UxXDYhhsl4KT1WzjNvH+GpHU29Tlpy4K1cfjYsk29Mi2TeZXYclgWmmeMfHOT18lPxHHhnF3dUp/K9hdFMHx+Dy7RSXl7NX98p5Jl1NVQPwqQotvoyfvRsAz9bFs/cWCe2pkY2vp/PI38/gacf8fSl/c+JezhLr4zF2a2O6Iw4lmW0fzA15L9RyMZua2m2Hs7nu89a/Pj6GKbnJBBub6/DBPHJn4vZTf+uV9VHf2Vj9k+YO/Vubq/18rc3P6PO3/9rW7XpSf6n4UYWzL+M1LEzSKSJmuLtfPTBK6zbU9GvSXUsy0fx6kf504kbmTs7m+SsGST466mtzGXru2+w/uM8mgPUb2zDybzu2yyZEonn2Ere2VjBmX4BKNy2geLMeYyySti+/VCfYxYRERGRc2NlT7+sY2yc3W4nPi6GYKeTlpaWLgmjy+UiMTERh8NBc3MzRUVFeL3eQQtc+s4YBwuuT2f+yDMUPF7J46sqqbIsTHwqq36RRsK2PUx7+jwsniddmIgpXPfNrzM9xklLxV72rF3BO1uL+rXMyVBijI3YnNtYMD+HdHcorWUbWPH0cxysuzjOT0RERORi1GU2VJ/PR3FJWVvCGBzc0cMYHh5OfHw8lmVRX1/PsWPH8PuH8tSUcnoOJkyPZ1nSGR7Uj7bwX6sqqeq87SJJXoYaq24Xbz7xCEevvYW5l09kevZnvLe16MyTxF4w7CRmzyUjqpK89S/y3tubqfDqXhIREREZyrr0LJ7UuYfR5/N1THpTVVVFaWnAWVvkItfRs7h9L9P+2J+ZUeRMrJBoUmKhKL/soupZHJmWhSk9QHWzFlYUERERuRAEXOb8ZA8jgM3WVqS0tFSJosgAMM3lFBSUXzSJIoBl+akq2K9EUUREROQCErBn8aSM0akAFBYW0tDQMGBBiYiIiIiIyOAK2LPYnRJFERERERGRS8tZJYsiIiIiIiJyaVGyKCIiIiIiIj0oWRQREREREZEelCyKiIiIiIhID0oWRUREREREpAcliyIiIiIiItKDkkURERERERHpQcmiiIiIiIiI9KBkUURERERERHpQsigiIiIiIiI9KFkUkfPGOEaSOnMpN149Gbsxgx3OoDHGTubVdzN/5lgiHZduO4iIiMiFzTHYAcj5Z4aN5P/cm8YMU82Tzx5mba012CHJeTRUr2/Y6Gu47pbrGTsqGP++51g12AENKouw5JnMGTeLnPk7+ehvz7Exr26wgxIRERE5J/a4+IRf9LZzxPAoACoqKgYsIOm/iCuy+MP84YxyRzG88ihvFKhn42IyFK+va8xt3HnPl0l2lLBj1X/y8lvbaPIPjSR2MFiWn5I9WyiqCyZxfA4TL5tM6NFPOXLcM9ihiYiIiJw1B0BkRDhhYS5aW720els7djY0NADgdrsDHhwUFERQUBCFhYUDEOrguXy6k2/FGd740MMr9f1/ADbGMDbdwa2pdhJDINjeVqep8HLvZi+tVv++o25/BZurI5nKCT7Y7wUu3Yf2C4ExDnIWZ/CDeaPIHBFEaPv9QO4+Zvy+mOZu98OZru+ohVP58NYR3b6kmed/vZFfHTn/94IJn8WSO+bj9h5hzVOPsrnE1yOmS5HVWknBxud4Nq+Mr35nOTl33MWx3zzJ3ga1jYiIiFwYHABhYS5cLlevhcLCwgYsoEuBKy6I+8fbcDYZdhwzNJ/cUWfwn4f6rZJi7v1R8clP56FG+SJFXJbF4zfHEFJVzdrNTTSe7CgsbsQboPyZrm/TseO8uqGp43N0RixXxp73sAEwxiJt8U1khnrIX/FMe6J4pmPSufZnP+YyPuRPv3yBo/38cWSo85W8y6vvTOS+pVP40qIscl89iLnIz1lEREQuDg6A1ta23sSGhgYaGxvP+mCXy6VEsg9SRlqEYVi3y8P/VHZ7aNRD5CVnwpgoImnlled28GBu/++Hhv1H+fn+U5/nfc39hSWL2MYxcVIUNG5i0+Yq9ONEYDWb3yV30RgmT55FymsHGQIjh0VERETOqC1Z9Lb1XzQ2Np7T+4lut/uiShaNZTFrrJ0lCTZigqC23scHuX7Ke+nuM8aQEO9gebqNMREWocDxWj9b83y8VuzH28uDfrAdwMJz5k6Ys4/dhPC9B2fxraSu37ntpQ3ctaa1Z/n4VFb9Io2E7Xu4fnMEDy6LZeooB00nGtixJY9fvVlFWad3zs61fFtMNjJnpvK9hdFMjwvBhZeyz6t55/08ntra2GW4rTEhfPuns/hucjk/+kkZE+8azfWjXYQbD/kHS3nmb/m8W973J+xT8e9l8fpQfrosgZw4J/amRrZ/ks+v/l5Oga9/8RhjZ9JVo7lv3igmxwYThpeK0hrWfpDPEx/V0dDL/RAaZAP8NLWcJv5zvL59cS7Xq0N0Jklh4N29jwI/Z5krNuFpAUwjTacpZUwosdMWM2f2dBLcI3DZm6irLOLQ5tdZvzWfJtP5eo3iqu8/zLz4nbzy8Cbib72JySnRhJg6Ko9sZcMbK9hX2fUPzljDyVp0G/NyxuIOg8byQ+x663nKcx5m2aRy1v/256wr7/QdtpFkLljKldOzGBUZRajDS1NdJaX7N7DuzdUcbTzNyfv2kZfnZfLEdFKjoaCs96IhY27mjq/Mx22V8OmLv2fNgbP/AU9ERETkfNJsqO2MMUyYEMS30ixMq2F/uZ9am8WC6XaOnAhU3iI5I4ifjrNwegz7yn3UYpE80sb1021khrby6yN+/JaFMRbZmXamtY/0HT6y7aFyXHoQd3ee76LOz5/zfPj61LvoZe+2Yl4taPsUHDeS6zJCznxYRBwP3x2O81A160qcTBw3gqtvmEKmaztL//+angnvWZY3xmLstVP4y7Ioghsa+CS3lOPGydgxbu69dyTZUdu45736AOfqZPk940lzVvHJzgaGJQ0nZ3IKj6YE4/uXXNb0953R8Bh+dW8EriPVrD/uZPyY4Vz5pYk87djODc+fwNPHeIyxmHJTNv/95QiCmxr5dG8ZFcbJ+LGjuP2u4UwdsZ3bX6/Da1kY42DB9enMH9n2DdGj7YCNnGvG8lDnCTOLS3lo9Yn2Nu3j9T1Lfb5ekZGEAY211fh7uW+NSeVL372NqIItbPtoPQUnqqitNRhfFScA+/CxZM+ey+SUct5+8lVKLAtj7CQs+gFfXZSKveEYhYe300AY7tHjybl5POmxj/HMa/sD/CATwbTb72GU8yAFe0sIjcsidfwilieN4OVHn+ZA46nrFbv4fm5ZmICtpYLCffnU26OZcvs9lJcGOgcbCdfez63z4vBWHyFvTy5NXjuh7izSc27h9rgg/vuJt6jopQ0sy0dNTR0wjLBI4DTJYvK0OSREOIEUpk3LZM2BXb0XFhEREfkCKVk8yenghhQLPH7+88NWNnnaHvqckXZ+NCtAeYfFzZkWwU0+frfOy25v+0Oow+Lrc4OYk2Unp9DPlvbOjLR4G3Mjuz5IJsXZSer02VQY/pIHfelwtCwva988wNr2z6MWTj2rZMKRHMSnv9vCkwVt3acOdzxP/2wMM+cnc83fd7PK18fyLjf/cF0UoceL+c4v97Ph5EO6azj/92dTWboklcUb9vBWc9f6sSJxH9vBkr+eoN6yMJaDa+/N4dEZsXzjqnzW9Djg3DhSgtn1+4/5Q35boLbIaJ74xQTmz0ll+cqdvFjfx3jCovnuoghCGir42UN7WVFtutZ/bRpL1nzGq00ADiZMj2dZt17CrKkJZHXekFvLw6tP4KXv1/es9fV6BQfjBBo9p7kusZPISkkjOm00E668hryPXmRbaSVVpoHMGx5g0ZVjiXRYGH8xmbGvUlIGBE1kxsxofCUf8tJTL1DQ3B5PyDhu+McfkH3Fl5n07n52dP9aWxoRJY/x1Ir9eCwLY4Uz/o4HuXnKdObMiuHA++Vt5ezTmHNVArbWw6x+/Hdsae91dKYu565vZAY4iUTGT4rD1rqbt37/B3afjMeEkL7of5OTOILoEVBR3XszeDwtwDCcwb2XASjY+gEFqfOIpphPtx48fWERERGRL1DAZHH8+PG9HpCbm/uFBTOoIiDBBvWlvo5EEaDlhJettXYyuk0uSZTFaAeUF/o7EkUAy2tYW2yYk26RFQlbqsCyDCvWe1jRXmbK5CB+kGyxemMLL1QP7juLtqNl/CXf1/G9reUlvH4gi5lTwhgdAxT3sXxKJJOC4dj6zzsSDwCrsZq/bW9k6dVRTEuGt3o8C9ezanVbYgZgGS9vr63gxzMSyUyJAPqXLNqKSvlTnrcjfn9NOX/fmcX82eFkJAAH+hhPaiTjHXDi4+KORLFr/ZFMSYNXc8GymnnyobU82V5m3teu5Mkr/IFnKx2o+6HP1+vMrLI3ePZXB5kw/TKyMjOIzbmHJQ4bNutrLPV7qCvZw44Dn7H3k03kHW9vZ+8uXv/X75+s4VRdzfs4WNBCdrabkW7gaPdvO8bu9fs7eogtU0/uph3UT5lHdEIq0J4suhNxO8G/dwNbK07dDy35q9lTvJjYlO712rDZAH8r3k4/oFhWM3mr/4O8bnH2h+fISp57ZOV5qUtERESkP9SzeJLTIgyo6LYMmmVZ1AZ6l8wBoQAj7dw9ueuukGFtD41hQV9AnOeZp9ZDTaeExLIMNQ1ewI4rtB/lQx2EAWQm8dCdXV/6dCUGAXaGBXzdtaVn70xZNe/sdBJf6MFmTK/DHc+Gp85DbbfjK+pagVCGhfcjnmA7LuDzup7r6LXVH0LoGXqUBlWfr9fZ8VYdYNfqA+xaDaGjb+S2264ggiq2P/8HNhQGfnPRWOHET7mcjAQ3Ea4gbO3bIxLtgB2bPdBRtdTWdNtUcYDde6IY/nktljFtM5FGhBMKNNZ1HT5rWbXU1AZ6Sfko+/dUkDNnGkse+CFj9h+hrKyYsqMHKPr8BF4zsD/yiIiIiAyEgMniRdt7eD5ZFhYwbLiducN77jbGXNoTQ7Y/2Q9Pi2NZWoD9xo9lC7A9AKu2kl8/Vdn+YfAbNWA8ZzwX66zPd1D09XoZPwbO+ro405bxv75+DaGfPMZbQV/nK9/4R2xP/5Z1RV2TbONIZ8F37md2Uii2AHWbc5jryKrbxpo/b2v/cLKutr/fQNVYAbZalo/CVY/xUuNSZs+YyITZY5h8sne95hDbV/6J93aVnX5JDMsC/OcUu4iIiMhgUs9iXxmDAQr2eXjwcG9Pf4Of2Aya9s6Z3Nc2ccubvQ0dvYja54wLZBrM+VhE84vS1+vV4qEVCHGdudvRhOdw413XEMsB3no/l4NB73B02v/HVV/735T97o/s77RY/ai5tzE7KYQTnz3PK69tobS2pSMRy7j1cW6bcY7n153PhxcIsnf9L9AYG3Z74Kze8ldyaM2zHFxtETQshui4ZBKzZpIzexI5t99DzecPs+V471/pcoUBzbT0byS1iIiIyIDp8lRknWOvzbmWH9JaDY1AuLPrZmMMwwINH/RCU4Dy0q7JSwMQFTG0GsgZ4WRYt64dd0QQ0EpNXeBjzkqLj0ZgeIDzbavfd9qlMQZdX69XWRlVgCs6gbDTdJkZYyf92psZG9bKsTUvsr0GqHyft9YU4I2YzqJFY7G1H2+MRWxCAudLZd8AACAASURBVBal7HlvHSV1no5E0RgbwcHnYXx3ZSW1QGhcctf7wZZGXNzp/1+zLIO3rpTig1v5+I0neeWjMrCnkjq697iMGUZMTBhQSfVpZkIVERERGUpsALb2l3+ioqKw2wO+CNSFZVkkJCQQFRX1xUY3kGoNn/shPNbOFc5TD4/OSAdXRAYoX2M44oWR8Xayg06VN5bFktlOnrnWwaKQS3i8WWENu1ogPjuBBeGd2sfu4ls/nsMn/zaVO4cPfPt4k2O4K+3UPW6LjObmqUHgr+dI8WkOPJP8WvZ6IWpqPDcNP5VsdNTfeoId+f2ovx8qG7yAg9iRp/nb7uv1qsmlsAKs5GlMCPR30s6yfBxZ+Tivv/Ucr639HGNZWJafsvef5fU3nuWFN/Z3vDtoWYaG+jpgBInpbqxOyZwzaRHZ6Wf+P+qMaveQV+yHxKu56dps3OEhOIelMuXm5WQF9ZyP2Lgu58YH/oVv3rmASKtzOwQRFh4MeGhuPM08xlE5jEmyoOIAR2pPH5ozfQl3/vNj/PAn/8S89AAvDouIiIgMEAeAz+vF7/fjcDhISUmhsLAQny/wg4/dbicpKQmXy4Uxhubmi2RMlcfH60V2xqbauHe+kzmVbessZg63KK0Bus+G2urjlYN2xo23cf98J/uqDDVecI+0kREKZYV+NjUxYCMtTXIsD86L7BhXHBzXtqhj0vQMHoo/Of6xiXdfLmRj0wAE1VjBH1ad4LLlsTz2ywg+OVhHZaudxIwRTB1ho/Cjo7xRxYCPRG0+0sz071/OXw9Xc9TXts5imgs+X1fAK3X9iKexjCffTWT6dW4e+kUOS/bXUE4wE8aOIDXUx97XC1jV2Pf6+3N9928vp2hhCgtun8G/TzzB8Y7Ze2t5+c/F7LasPl8vyzrG9i2Hybkhg1k3TGP389tp6m2tQU8xu9YWd6nEMuXsXV/eo+KirRsozbmBtKU/5ztT9vP5CQ9Bw5JISW6hKL8OxpxzE3aLu4SNK99j7NevIWXhfXx7Ydv2lmOr+KRwNLMndDugYR/5VbcwedKt3PvAFPKOHcfjd+JyjyYtNQr/8Y/Ydcjf4zwAjAln/A2LSbJ5Kdy8vte1GE9Km7mQ1FGhQBY5OVl8eETrLIqIiMjgcADU1NVT39hEfFwMISEhpKamUlBQ0CNhdDqdJCcn43Q68Xq9FBUVXTTJomVZ7N3r5Y8+O0sSLLJi7NQ3+Nmw08uxpCC6LyZiWRZFRzz8S5OD5ek2xoyyEYKhusHw/mEfKwt8HcstDAj3cJZeGYuz23dGZ8SxLKP9g6kh/41CNgaefPK8sizDgXd2cUd1Kt9bGM308TG4TCvl5dX89Z1CnllXQ/UgDGO21Zfxo2cb+NmyeObGOrE1NbLx/Xwe+fuJjuUW+sKyDJ+9toOvVY/mvnlupk6MJRsflaUV/HVtAU9sqAuwgPw56Mf1bT2cz3eftfjx9TFMz0kg3N5ehwnikz8Xs5v+Xa+qj/7KxuyfMHfq3dxe6+Vvb35Gnb9/19Z3dBUvPtPE/MVzGB07gXGJLdSV7GfLn1/i2KSf9jdXBMCb9yrPPrqPqdMm4o6AprJ97Ny6m8Tbr+1R1rJq2PXCo5hFNzFz0mgys8fixEtTfRVlu95g09tvke8JkCjahpN53bdZMiUSz7GVvLOxgjP9YlC4bQPFmfMYZZWwffuh83CmIiIiIn1jZU+/rGNMld1uJz4uhmCnk5aWli4Jo8vlIjExEYfDQXNzM0VFRXi93kELXC5dxjhYcH0680eeoeDxSh5fVUmVZWHiU1n1izQStu1h2tMVAxLnpcRETOG6b36d6TFOWir2smftCt7ZWtSvZU4Gy8S7nuamiSWs+82DrK/oW/zG2IjNuY0F83NId4fSWraBFU8/x8G6C689RERE5NLVZSpAn89HcUlZW8IYHNzRwxgeHk58fDyWZVFfX8+xY8fw+4fy1I5ycXMwYXo8y5LO8OB9tIX/WlVJVedtF2DyciGw6nbx5hOPcPTaW5h7+USmZ3/Ge1uLzjxJ7BBjTByj3Bb4j1NddebyvbOTmD2XjKhK8ta/yHtvb6bCq3tPRERELixdehZP6tzD6PP5Oia9qaqqorS0dMCDFOmvjp7F7XuZ9sfywQ7nomaFRJMSC0X5ZUO6Z9GYMDIXLmdsx/vIDkJjx5KZHEXTrmf4j798QnMf4zfGxsi0LEzpAaqbL+GJrkREROSCFnCdxZM9jGkpSdhsbatrlJaWUlXVr5/aReQSYJrLKSjgAujFDSVu4pVMa++hNn4vLXXlHN30Ou+93fdEEcCy/FQV7D9fgYqIiIgMioA9iydljE4FoLCwkIaGhgELSkRERERERAaX7WwKKVEUERERERG5tJxVsigiIiIiIiKXFiWLIiIiIiIi0sMlmyyGh4cTHh4+2GGIiIiIiIgMSZdssigiIiIiIiK9U7IoIiIiIiIiPShZFBERERERkR6ULIqIiIiIiEgPShZFRERERESkByWLIiIiIiIi0oOSRREREREREelByaKIiIiIiIj04BjsAEQuNsZp46vT7GTh59XtXnZ6rMEOSURERETknKlnUeQ8c8XZudptI8XtYFGc/sRERERE5MLkAIiMCCcszEVrq5dWb2vHzoaGBgDcbnfAg4OCgggKCqKwsHAAQpWzZYxhbLqDW1PtJIZAsL2tZ8tUeLl3s5dWSz1dX6TG4z72NkEGhm2VfkDtLSIiIiIXHgdAWJgLl8vVa6GwsLABC0j6zxUXxP3jbTibDDuOGZpP7qgz+AczsEuEVe/nN2tOtrQSRRERERG5MDkAWlvbehMbGhpobGw864NdLpcSySEoZaRFGIZ1uzz8T2W3ZEW9iiIiIiIichbakkWvF4DGxkYqKirO+mC3261kcQgKtgNYeHynL2eMxehkOzelWaSHWYRiONEAO/K8vHzUT3OnxNIYixuvCmLZMD9//MBP2hQ7V0RZuDAUH/fzxl4vWxv7l4gaE0rstMXMmT2dBPcIXPYm6iqLOLT5ddZvzafJdI5nFFd9/2Hmxe/klYc3EX/rTUxOiSbE1FF5ZCsb3ljBvsquDWCs4WQtuo15OWNxh0Fj+SF2vfU85TkPs2xSOet/+3PWlfftHIyxWDY3iKWRXY8/sMfDw/mmZ/lwO7+eZ8dd0sqPj9m4a5yNrFCL5hbDoaNeXjjsp9pcXO1pbCPJXLCUK6dnMSoyilCHl6a6Skr3b2Ddm6s52sv9EzLmZu74ynzcVgmfvvh71hw4+x+0RERERKTv7HHxCb8ICQnG5XLR2Nh4Tj2LYWFhhIWFnVOCOVQ4nU4APB7PIEfSf8ZYZGc6+HKijewYGxNG2ohxQrDTRuqotm3ZMTayXfBZtR9jWRhjSB/r4CfjbcTb4Uiln/wGGBZpY1KCjUkYNhw3mI6E0WJsip1xwRAWZWecw3CgylBrt5E+wkZOnI1jR30U+/uabNlJWPRD7lp6Ge6gE5QcOUjx8SaC48YzZuqVjAk9zI79lfg74nGRcvmXSI1oIDRpHqkhRyksKKbB4SYhbRzjp8RS9smnHG+1OtoodvGP+OrCLCKo5uiBA1R4RjBmzhQiPCMYMbyBwk1rKWzoa4JmEeK08DQaCmsMxX5ICrU4Xu5jw4kAxZ02rk61EdZqkZpiJ7TWkFdvCB9mIyvaTrbDsLa8c/ufm6HWnsbYSLjux/yvhWNxtRRTcHAfR4+V0mCLIXXCDCZl+Di45RCNAc539KJvckVqCHZnFG6OsHFPWZ/aRERERETOjZbOuEikxduY261XKynOTlKnz6bC8Jc88AEE2VmebsPp8fNf61vZ0Nx2rM1p43vzHGRn2pmd72e9t9sXWRBV08o/7/HTZFkYY3H5NAffTrBxQ7KNT4/07EU7K0ETmTEzGl/Jh7z01AsUtMdjQsZxwz/+gOwrvsykd/ezo7nbcbY0Ikoe46kV+/FYFsYKZ/wdD3LzlOnMmRXDgffL28rZpzHnqgRsrYdZ/fjv2NLeS+ZMXc5d38jsW8ydWJZh52EvO9s/D0sL4ooRZz7ONszi4KYWXq1tO1+7y8YPr3IwLs1Ozj4/m/vYnEOvPRMZPykOW+tu3vr9H9h9Mh4TQvqi/01O4giiR0BFdc8jC7Z+QEHqPKIp5tOtB/vYICIiIiJyrgImi+PHj+/1gNzc3C8sGOkbyzKsWO9hRfvnKZOD+EGyxeqNLbxQ3cs7i1E2Um3QUOrrSBQB/B4/a0sN2ckW6VGwvrL7txk25rcliie/e0uh4fYEi8Th/TgH7y5e/9fvn/x0anvzPg4WtJCd7WakGzja/chj7F7fltgAWKae3E07qJ8yj+iEVKA9uXEn4naCf+8GtlZ4O9qhJX81e4oXE5vS99j7w6r1824NHafsbTBsPA7jYiziw4D6PtY75NrThs0G+FvxdhrNalnN5K3+D/K6xdmZ58hKnntk5Tm2gIiIiIj0l3oWL1V2QzBQGWAUbq0HwCLEHvjQmu69UfV+tpTCqGqwGdNpaOO5MVY48VMuJyPBTYQrqGMR0IhEO2DHFjCeWmprum2qOMDuPVEM/7wWy7QP5YwIJxRorKvuEp9l1VJTO3hzxPpaDA1d4jHUtRjAIiSof3UPrfY8yv49FeTMmcaSB37ImP1HKCsrpuzoAYo+P4G3n+9nioiIiMj5FzBZVO/hJcCyzryow1k+v1sePy9+6u+oty+MI50F37mf2Umh2ALUYc5hOKZVt401f97WLZ628w1UjRVw64VtqLWnZfkoXPUYLzUuZfaMiUyYPYbJ7XW11hxi+8o/8d6usj6/oykiIiIi5596Fi9Vxpw5RRrAHGrU3NuYnRTCic+e55XXtlBa29KROGTc+ji3zejnF/h8eIEge9db3hgbdrst8DEXsKHYnpa/kkNrnuXgaougYTFExyWTmDWTnNmTyLn9Hmo+f5gtx/sZl4iIiIicN12e6qxz/FX/XMvLEOKzaAEinD13DXMCGJrPsPTG+WKMRWxCAhal7HlvHSV1no7ExhgbwcH9HI8JUFlJLRAal8ywzt1qtjTi4i6u+3iot6dlGbx1pRQf3MrHbzzJKx+VgT2V1NHnIS4REREROW9sALb2l5eioqKw23t5Ua0Ty7JISEggKirqi41OvjgnDHl+CIu1Myfk1MO+zWljfqwFPsPhADNTfhEsy9BQXweMIDHdjdUp+XAmLSI7/cz35BnV7iGv2A+JV3PTtdm4w0NwDktlys3LyQoaoKx4gAzF9jSuy7nxgX/hm3cuINLq3GUdRFh4MOChuTHwdXCmL+HOf36MH/7kn5iXHtr/2EVERETkrDgAfF4vfr8fh8NBSkoKhYWF+HyBH9zsdjtJSUm4XC6MMTQ3d5/tRC4IrX5WHLYYk2XjnnlOrqjwU4NF2igbMUGGggM+Nnk56/cW+6to6wZKc24gbenP+c6U/Xx+wkPQsCRSklsoyq+DMf2r37JK2LjyPcZ+/RpSFt7Htxe2bW85topPCkcze0L/6jcRNu5Ks3WM6w6KaPs3Jt7O3REdpfh4r5e9vi++UYdcezbsI7/qFiZPupV7H5hC3rHjePxOXO7RpKVG4T/+EbsO+Ql0w6XNXEjqqFAgi5ycLD48sqt/wYuIiIjIWXEA1NTVU9/YRHxcDCEhIaSmplJQUNAjYXQ6nSQnJ+N0OvF6vRQVFSlZvEBZluHIAR+PNMNNqRaZ0TaCsahp8PN+ro+Xi/z4BnCYse/oKl58pon5i+cwOnYC4xJbqCvZz5Y/v8SxST/tb24DgDfvVZ59dB9Tp03EHQFNZfvYuXU3ibdf2//Kw2zMTbbh6NZmUSPszG1fb9EYPyUHYe8AdGQOtfa0rBp2vfAoZtFNzJw0mszssTjx0lRfRdmuN9j09lvkewLfb4XbNlCcOY9RVgnbtx86D5GLiIiIyNmwsqdf1jEmzG63Ex8XQ7DTSUtLS5eE0eVykZiYiMPhoLm5maKiIrze7iu2XzjCw8MBqK/v40J2ctGYeNfT3DSxhHW/eZD1FRfX+4uDQe0pIiIicnHoMsGNz+ejuKSMFo+H4OBgUlNTsdvtREZGkpKSgsPhoL6+noKCggs6URQ5yZg4Rrkt8B+numqwo7nwqT1FRERELh49ls44mTDGx8UQHBxMRkZGx6Q3VVVVlJaWDniQIueDMWFkLlzO2BEntzgIjR1LZgzU79rMoQF8R/NioPYUERERubgFXGfxZMKYlpKEzdbW+VhaWkpVlboK5EIWStzEK5mW1L6MhN9LS105Rze9zntvf0KzloI5R2pPERERkYtZl3cWu8sYnQpAYWEhDQ0NAxbUQNA7iyIiIiIiIr2znbkIF12iKCIiIiIiIqd3VsmiiIiIiIiIXFqULIqIiIiIiEgPShYvUOHh4R3vXYqIiIiIiJxvShZFRERERESkByWLIiIiIiIi0oOSRREREREREelByaKIiIiIiIj0oGRRREREREREelCyKCIiIiIiIj0oWRQREREREZEelCyKfIGMYySpM5dy49WTsRsz2OH0yhg7mVffzfyZY4l0DN04RURERGTgOAY7AJGLVdjoa7julusZOyoY/77nWDXYAZ2WRVjyTOaMm0XO/J189Lfn2JhXN9hBiYiIiMggssfFJ/yit50jhkcBUFFRMWABDRSn0wmAx+MZ5Ej65kKP/2LnGnMbd97zZZIdJexY9Z+8/NY2mvzWYIfVK8vyU7JnC0V1wSSOz2HiZZMJPfopR47r/hIRERG5VKlnUYYcY8JJmX8rC2dNwB0VTrC9LckyB1/gkafX4rWGbtIFYMJnseSO+bi9R1jz1KNsLvEBQztmAKu1koKNz/FsXhlf/c5ycu64i2O/eZK9DUM/dhERERE5/5QsypATPOV2brluBkHVhzmwrRTPyVfoyorxD2pkZ2aMRdrim8gM9ZC/4pn2RPHC4it5l1ffmch9S6fwpUVZ5L56EDPEE3QREREROf+ULMqQE5eeQSgNbP/7b3nzYLfJVoZ60mIbx8RJUdC4iU2bq7gQehQDqdn8LrmLxjB58ixSXjtIgea8EREREbnkKFmUISfI6QRaaPX46S3ZMqm38v37vkTQp//Goy/t7rIv49bHuW1GCx//+494r6B9CGvsjdz3wHVE7X6WJ7clcf21l5M0IgRPTQlHt6/k3ff3UNftnUJjnMTMWMK82dNIih2B019HXeVRDm1+g/Vb82gyAWKLziQpDLy791HQe/jt9YcSO20xc2ZPJ8E9Ape9ibrKIg5tfp31W/O71G/MKK76/sPMi9/JKw9vIv7Wm5icEk2IqaPyyFY2vLGCfZVdezGNNZysRbcxL2cs7jBoLD/ErreepzznYZZNKmf9b3/OuvJeAvTtIy/Py+SJ6aRGQ0FZ7+chIiIiIhcnJYsy6IwJJ+vqZYwZ3vY5IsUJ2EmbexfXX9apYNkW3lp3AH9/ehfDZrH01ngc+Yc4WB5BQmYW4xbdT3Tob/njykMddRtjJ/7qH3Ln4lScnkqKDm6jxheKe/R4cm4eT2bKf/DsSztp7h5LZCRhQGNt9WnjNMZOwqIf8NVFqdgbjlF4eDsNhHXUnx77GM+8tj/A+5kRTLv9HkY5D1Kwt4TQuCxSxy9iedIIXn70aQ40nozfInbx/dyyMAFbSwWF+/Kpt0cz5fZ7KC89czNZlo+amjpgGGGRgJJFERERkUuOkkUZAlzET76SafGdE6MgYibNIabTFnOwiHfWHejXe4u2xDCK/vgzPjzaNsunbeQCbv/BV0ibfQ3jVh1i78nKQy9n/sJUnI17WPXEv7Ojqq3XzoRkce0/PMBll91EztqdrO8+UXBwME6g0dN8+kCCJjJjZjS+kg956akXKGhuT/JCxnHDP/6A7Cu+zKR397OjezW2NCJKHuOpFfvxWBbGCmf8HQ9y85TpzJkVw4H3y9vK2acx56oEbK2HWf3479jS3uvoTF3OXd/IPKu28nhagGE4g8+quIiIiIhcZJQsyqCzrHLW/f4brGv/HGgYaafC/fuuz7fycVFLRz2+ynXsOnwLaROicUcDJ3vdktOJt0PT3g86EkUAq/kgH7+/nogJw2gNB/q4qozl3cXr//r9k5861b+PgwUtZGe7GekGjnY/8hi717cligCWqSd30w7qp8wjOiEVaE8W3Ym4neDfu4GtFd6O823JX82e4sXEpvQtbhERERG5dChZlEuKr76Wpk4Jp2X5aGpqBoJxhnQq2N5DeKK+tkcd1Z++wMufQn8nrzFWOPFTLicjwU2EKwhb+/aIRDtgx2YPdFQttTXdNlUcYPeeKIZ/XotlTNvMpRHhhAKNdV2Hw1pWLTW1Q31OWREREREZCpQsipxPxo+BM/aAGkc6C75zP7OTQrEFKGvOYfZRq24ba/68rf3DybosLCBQNVbArYEKWoD/nGIRERERkYuHkkW5MJ1FAjMoSU6Lh1YgxBV22mKj5t7G7KQQTnz2PK+8toXS2paOtQzbhuH2Mw6fDy8QZO/6J26MDbvdFviYblyuMKCZljO8fikiIiIiF6eze2oUGWqam/EAIeFR2DtlhcYEERERCjTT2p8kp6UFD+AKH9Zj14icO7ntnu9y5egAvYdlZVQBrugEwnrJVo2xiE1IwKKUPe+to6TO05EoGmMjODioH4G3q6ykFgiNS2ZY5zhsacTFnXn4rDHDiIkJAyqp1kyoIiIiIpckJYtyYSo/xLFGsDJmMyv2VO+ZI24R0zIsqD9CQXk/6j96hGIfhE5YQPaIUy8PmpAxXD5/NhljRmLVBXj3ryaXwgqwkqcxITJw1ZZlaKivA0aQmO7G6pTMOZMWkZ0e8GXFc1O7h7xiPyRezU3XZuMOD8E5LJUpNy8nK8h35uOjchiTZEHFAY70fG1TRERERC4BGoYqFyTL5PLRO3sZs2wC8+//JekH86hlJIlj0omy1XPo7bcoMP2YgKZxC2vXzCVp8USuf+CXTD6UR43PhXv0eGLDDdVbV/BJOT3muLGsY2zfcpicGzKYdcM0dj+/vcuEOicVbd1Aac4NpC39Od+Zsp/PT3gIGpZESnILRfl1MKbvobfFUcLGle8x9uvXkLLwPr69sG17y7FVfFI4mtkTej/WmHDG37CYJJuXws3rqejnDLQiIiIicmFSsigXrKpNT/I/DTeyYP5lpI6dQSJN1BRv56MPXmHdnop+LbNhWT6KVz/Kn07cyNzZ2SRnzSDBX09tZS5b332D9R/n0dxL/VUf/ZWN2T9h7tS7ub3Wy9/e/Iw6f9eyvqOrePGZJuYvnsPo2AmMS2yhrmQ/W/78Escm/bS/uSIA3rxXefbRfUydNhF3BDSV7WPn1t0k3n5tr8cY23Ayr/s2S6ZE4jm2knc2VtDfWV9FRERE5MJkZU+/rNdpQDJGpwKQm5s7YAENlPDwcADq6+sHOZK+udDjv9iZiClc982vMz3GSUvFXvasXcE7W4u6LGMxWCbe9TQ3TSxh3W8eZH3FqXclY3NuY8H8HNLdobSWbWDF089xsG7w4xURERGRwaF3FkW+AFbdLt584hFe27CPxqiJTM9OHxJ/bMbEMcptgf841VWd99hJzJ5LRlQD+ev/m/9+XImiiIiIyKVOw1BFviBWazG7X3+cPe9FkxILAabD+UIZE0bmwuWMHXFyi4PQ2LFkxkD9rs0c8tJphKmP/Pd+z5OlB6huNmjoqYiIiIgoWRT5gpnmcgoK6Nc7lH0TStzEK5mW1D7U1O+lpa6co5te5723P+nyzqVl+akq2D/A8YmIiIjIUKZkUeQiZVmVbHjiG2wIvHeAoxERERGRC81QeI1KREREREREhhgliyIiIiIiItKDkkURERERERHpQcmiiIiIiIiI9KBkUURERERERHpQsigiIiIiIiI9KFkUERERERGRHpQsioiIiIiISA9KFkVERERERKQHJYsiIiIiIiLSw1kli3a7/YuOQ0RERERERIaQ0yaLxhj8fj+jR48mODh4oGISuWQZx0hSZy7lxqsnYzdmsMMRkQCMsZN59d3MnzmWSIf+TkVE5OLl6G3HyBHDsSwLy7Kw2WykpaX9P/buOzyu6z73/XdPA2YGZdB7Iwp7FyFSEiVSVi+0miVLvrETK3KJEyeOE/nk3Dh2bMd2Eke2E8UnLjdFsewbF8myitUlUiIpUWITe0EHQfQODDBtnT9QCGAAFhAkWN7P8/ixB7P3mt8uQ+931tprU1dXR19f3/msT2TGGfdSVl39YdLNIXZt/v9pGLBmuyQAvHNu4fb772BeagyRA0/w3GwXJJMy7niKr8ogkV5qNh+n/QI5f+R8svDmX8na+WsoX7+Lt3/xBJsre2a7KBERkRlnz8rO+erEPyYn+UhO8mGMob6+HsuyiI2NJTExkVAoxMDAwGzUOqNcLhcAgUBgliuZnou9/tnkLHqI9fNL8MTPIbbnVaraQ7NdEp65D/Lxh28j33Gcnc/9mF++sB1/RCHkQmQvymHxvDhi4r04ultpblfP0uXGsiIc3/sOtT0x5C4oZ9GqJbjr3qeiTf8ei4jIpSUqLKYkJZKclIQxhrq6Onp7e+nu7sayLLxeL/Hx8ViWddH3MF7sYetir382hUMe0vLKiA0e5OAHb9EemLlQZkw6S27/LjddWUD37nfptE7dtolbw32fvZs8U8GrP/h7Xt/fwuAkQdGYRBb+P2XMnx9D994u/MQz74G5LFzmof+DDvqHP8sYL2X3zWPxykwKl2RM+Z+CUied+7sYtCxMYjqr7ptDsW+Q2trBGdsf02XcKSx/oISytBB1lf2Y09iP50skZCM+14sr2MuxPe30zuD5MxvS1i7iirU+qG2la/Di3pazcbrfrxFWpJ/Out3sOhigcGU5CxZn0vbeNlqCl+8+FBGRS8/oMFRjDCnJPpImBMURzc3NBAIBsrKySE1NxeVycezYMYzuq5KLjNX9Oq899frIq1mtxRiLopvvptQdC/xpfAAAIABJREFUoOrpH7H1ePhkS0/xl4l/D9JZ2QGukdcOEgrj8TJAW7Wf0Z8XAj3op4YzZ3W3s/fp9pFXs1qLzKTT/X6NFz7+Ek+9uIjP3bWUD91Uxv6nDl9QP26IiIicDQdAbIyLlOQk3G736NDTsUFxRGdnJ8FgkLy8PBISEoiJiaG3t5empqbzXrjIJcE2n0WLfdC/hS1b2zl5+DBEwkAozFCkjBAJATZDZMxSlhWgZWc9LSNrGS9lufF48VP/Th1dYy9kdVErMuz0vl+T6dr6EvtvmsuSJWso+M1hqvUbqoiIXCIcAG53LG63G4D6+np6eqa+Ub+vr4+qqiry8/NxuVykpKQoLMpZM4kfZsOdtxNf+xOeOpxG+fJryfQlYAWaaa5+nvd2vEuvORFsjEll0a3fZHnKLt56egvJa+6mODUdFz10Nm1j7/tPU9sbHrN8Oktu/wbLUsaHo8b3vsgrB7tPWs8zlXlcuWw1aXGxhPqP01L1DO/t3YvfjAz7nMeaj/w5pe6xbS9l7cd/wtpTfVZ6KXleCO05QHWEU3RURQgHGXcxGw4BVoSZu+vS4MrNoHRpEr44O+H+QbqqjnN0Xy9BM744Y2x4C1MpKPORkOjEaYsQ6PbTdqSRmqN+QmOCqElMZ9UdGbhra3i3yn1a7U/FNaeQlWvisRqPsePVNgZGht9aTpIXZJI3x4vX48BpNwT9AXoa2qnZ2UrPWQwXNcZJwW3zKJpw/nS8t58PDkXv/Znc3qlrOv39D0P7J31ZNgVFcbhdhkBnLw07G/BPGB1ijIO8m+YxJz1AzXOHqOma0I4nleV3ZxHf1MA7r7QSHB3+fG7PB2NseIvSKJjrw+dzYjchBrsHaD/SRM3R/ujtNRbewnQK5g0t7yDCYEcvTQcbqa0ZnKT37yy+X+EDVFaGWLKomMJ0qNb/JYqIyCXCAYwOJe3s7DxpUBwxODhIZWUlGRkZ+Hy+c1uhXF5cV3LN2lzsLRUc64sjKWMuOfMfJsHWzbPbDhCJusCLp+Sqh0l0HKap/jguXxmZuTdxbXIyG5/7IXWjAaGfttq3OTI8etCesIg5GUmnUc8a1lyVjb35CPVd8aRkl5G/9PMkuv6R594/MnzB2UVL3Xs4nAAxJGYtISmmg+bqo/SPaaqzMxjdfmIiXqC/u2OSbZsoQigIBM3wxWyIcGDov2csLMYkM3dNLPaWPlq7nSRmeUlbWkScs5L3d/SNXmAbYxG/eA5Ll7qxDQzQ0dhNEDue9DhyVpeS7Ktk+/u90ds03L6tpY/WbgcJWXGTtj8VE5fCvFXxOAe6ObB5TFA0FvHLClm0MJZIbz/t9b2EQhaOBA8pJdn4fDZ2vNgcdd/Z6YvQW9tBw/D5Y0uIIzPDdfJVZmB7p3Km+98YC9+qOcwvc2ECg3Qc8xO0u8hem0d32/i2LStEU20/ReleUgvc1HwwfkKzmPwEEjB01nWOCYrn9nwwxiJ+0RyWLnNjDwXoauxiIGzHkx5Pzuo4UlJr2P5ON+Exy3sXzGHFCg/W4CAdDV0EcRCfkUDB2ngSPRXsOeCfsP+n//2yrDBdXT1AAt5EQGFRREQuEeMenREMTnIxO4VwOHxGy4ucDislgeZXv8wHw7MKWu7VXHvHJ8krvYPi3Qc4MvEmO6sId9d3eXbbQYKWhTFxFKz9CtcWrmRRaQZ1+5qHFrN6adj7BA3Dq8XOe/S0wqKV4qXplS+zp33og23e61l/x0fJmnsLBTuOUG3Aso5T8e6PqWCkB3MJSTF1HH7rR1SfKgzExOAC+gOnM8NwaLjnY6SnI0IoBNgipxwmd9pSHHS/epiatqEWrbgUFt2eTdK8NFJ39dEy0glljyO7xEWko5W9LzfQFRq+SHd6Kb1tDtll6aTt7qVp4lV28nD77cPte5NZeHsOyRPbn4SxxVJwTSY+R4jGzfW0jHtkRQxp+bFYoR4OP19FS+hEb5dvSR45KQ68Xujvn7ztU7GsMO376hm5U9E5d87phcWz2N6TOtP9H5NEfokLBrs5+HwtLf6hD7Ylp7PoBm9U84HaLrpXeknMS8Sz2z9m8iQH6XkeMP201IYY7Qo/1+eDM4GCxW7sgz0c+l0NTX3DdxM6PZTcMoeckkxy9ndT23Ni+aLFHmy9Hex+oY6u4Il6ym6bQ9bSdFKP1tAyrp6z+34FAoNAAi49klhERC4hkz5nccGCBVOusH///nNWjIjV9i4HWgdH76Uz/nc4XPcAeSVZ+HxA88Q16qk6cHC0h8Oyeqk5tJP+wnUkpRROtsKZ1dO+jYNtJ+oJ926ksvF+svLSSUgAus6q+TOrxQpS+7s91A69wCJCw6t7hgLwDN17aLV1cqw1PNpepKedpsZsknJj8IzZXivSw+HfjPxbcOKzrWAf7a0RsgtdQ8u3j2seq72DY21j2u/toLkph+QJ7U9kjEXi0jwKUiz8h2s5WheasM3W0EsTYeyoSsuK0LWnZrjZ839/5nS395Ttnun+98XgtUGwrm00KAKE21ppbc/AlzHhA/q7aGnOIjEjgTRfIzUjdboTSE6zMM1dtPaf+Ohzfj6kxpNgh2B162hQHGq/n2N723DluQjFAiNhMcVLghP8R9pGg+JIPcdrB8la4CUhCVpaOPHeefh+iYiIXGwmDYsisyUS6B4NfiMGB3qANGIm/cW+G//E3qLeQ9TU+vC2dWMZc1YzE0YGx9djWWEGAwNADE7ntJu9YJnB4Lh7vyzLEBwMAzbsE7bXWHbi830kJbmIibGPRgRXkgVYWLbJ2g+ddvsAJPgoXu0Bm4vkoljoaObA9kmGM9JPa32AnHmJzLttDi3H++nr9NPX1kdXe+g0hvieG2e8vWfS9pns/xgHTsA/ML5rz7IiBAejuzctK0RLbT/FGeOHojpzE0m0DJ21XVHf03N6PjgtHIDfHz0gdKDqOAeqYNyPAS47doD0VEqvHL99dp8DsOGIja5HRERExps0LKr3UC5mln872zdtH35xgfcImMjQxPwXep0TGJubwhuLKEi1Y01S+0w9UceKiyO79MTrwc5+/GGiOgkty6JrRyX7BjPJLYonfW4ctpHe4L5ejm+vo7ImcMk80uB87P9AbSddK7348hJx7/bTj53UfC9WpJ+W2iBjD8L5Oh/OhAW40pLITot+z5gZG7g95gMtIDIr2yoiInKuqGdRZDYNBggCsZ7o+8YuZJ55OeSn2vDXHGP/+530+8OjQSxp9QIWF8/M55iGet5+rY2wzc2c20rIK8phTmUfRxqjL/YtE6R9bx1tewx2TwyeRDfxmUnkzosn56p8/G1Haeibmbpm23nZ//4uWluy8WUkkJbQSI0/npQMC9PSRZufcYH9fJ0PZ8IAXTsPsGvfVPfWz+wPBx6PFxhg8HRuPxYREblITDIwSGT22FwJOCf8NB8TGw/0MTg4OzWdU01NtAOe9By8F0mXhDEGb0osFoM0f9BG30Bk3KyVDufM995ZZoDqba34jZPM8gwS7FPvK8uyiPgD9DZ20bCzigMHB8HuxpdxafxzN639Pzg0o6cz1jGhLRvOmMmPl2WFaantwxBLcn4MjjwfSTZDR834Iajn5XwImqH63dG/b8bOyWbhukLy0sacE4Ghx1+4Ys/PWHFjEsjI8AKtdGgmVBERuYRcGldPcskwqeXMTzkxy6TlXk1Znhcix+nsnMXCTlsvgQCAlxj3aSzetZ+aFrDyV7Aw8RyXNkMsyyIwEAJcxGe4Rh+9A2BPTiEj/dwM9Yw0N3H4SAArPoW5y7xYYz7XOBMpu62MlWuTcVljg6QdZ6wNMIQD52Do4SyY1v7vHKQ3As7cFNLGPA/UnpxKesrUwTtQ20VXBBKyE0nPicMW6ae1bnxP3Xk5H9p66A6DMzeVDO+YoOr0kLswmZQcJ4zt0WvvpSsIsfkpJLvGnCeWi7wbF3D1A3PI9szgjzO+cubmWdByiIrox7aKiIhctDQMVS4ooZYu0j/0DW5uOUpvJJ6kjLn4Ygw9h56jYpBpjxwzSWu5cm7R6K8j9oRUAOLzP8Jq38jFbwvV779AY2j6F7eW1U9jUz2RzGKW3vDnZHT2Dk+738exXU9S1WtNWL6eHe8cpfzOEtbcuYI9P92B/yK4r67naDs9xRkkryqjvKCH7n6DzR2LL9XQ2RyC7Jn/TMsydO48xvGcIrLKciioPkz1yDMCA7109ueQmZ/NytsS6WgfJGzsOOI9JKc7MT1tNDZO/7NNUhIlZd7R88eWMPSDhjs/i1LfSOgYpHl78+hjI86lM97/gx3UHk0jqSyBeXeUktHoJ2hz4kuDvjZg4myoI/xdtLTk4EtLoSBowzR30jphCOq06jlTgW5q9vjxLYtn7h1lZDT2Mzj8nMV4t2Hg6HEausfUFeihek8/SSt8LLwzlo7mAQIRG7GpcfjiLPxHW2jui96O6TAmjgV33kyeLUTN1k20XATfXxERkdPlAHANPxgqLi4eu+PEsJ3kJB8ALWPnFx/D4/Gc6/rkcjOwhc1v11G+/BpyExMg0EjDgefZtuPg2c1oGTePkpJV2Ce04c1YTenwhbIxVXTufoHGs3zCfee+H7Ml9kEW588hrzAGm2VhTDv+g09S1Ru9fPvbP2Pz8r/iumWf5KHuEL94/gN6Ihf2BWekvYW9r0UoXJpEsi+etBTDYHsP9Rsb6M4vZZI5RWaEFeql8v0OUq5LIu/KDFp+10SfsbCsME1vH8UsziInz0NKYRx2K0LQH6Snpon6nS1nF+Li4sgu8Y1OmjMiNiOJ7NHzp4++D5rpOsvz53Sc6f63LEPn+5UcCGVTUBRHUq6TQFcfjVvq6S+eR/IUn2NZYVpreinJiMMVMzQENTTJ9/Bcnw+WZejZW8nO/nQK5yaSmOkj0YQY7O7h2O4mao72E54wq2rf/qHlC+b58GUlYifMYHcfx/Y1U3ukb9LtOFPGlkTp7Z9lw9JEAvXP8OLmFmbjES0iIiLnirV85SqTk5WJ2z39ecQvxtlT4+LiAOjtneTq/SJwsdc/kUn8MBvuvJ24mh/z87fem+1yzjsTv5TbP/2HrMxwMdiyj71vPM2L22pn7ZEPIjI1Y2xklj/I9evLKU5zE2x6i6d/+ASHe/R9FRGRS4sDoL2jE/dAdFg8Vc+iyEybbNr9y4HVs5vnv/8t6m69n+tWL2Ll8g94eVstl8ZddiKXGju5y6+jxNdK5aaf8/LvttJyHoYfi4iInG8OAP/AAP6B6Pm+FRZFzh8r2MCe336PvS+nU5CJgqLIBStM1cuP8XjjIToGDBp6KiIilypNcCNygTEDzVRXM/yQbxG50FhWhPbqg7NdhoiIyDmnsCgXBKvrGZ796TOzXYaIiIiIiAzTcxZFREREREQkisKiiIiIiIiIRFFYFBERERERkSiX7T2LF/vzCS/2+kVERERE5MKmnkURERERERGJorAoIiIiIiIiURQWRUREREREJIrCooiIiIiIiERRWBQREREREZEoCosiIiIiIiIS5bTCot1uP9d1iIiIiIiIyAXkpGHRGEMkEmHOnDnExMScr5pERERERERkltmzsnO+OtkbKclJuN2xWJaF3W7H5/Ph9/sJBoPnu0a5yJn4pdz8B5/m+isy6Tm0l/aANdslyQzS8RURERG5NE3as5ic5CPJl4gxhrq6Orq7u7HZbOTn5+Pz+c53jXKRi1l8PatL88gqvYHyxZ7ZLkdmmI6viIiIyKXJMfEPKUmJJCX5RoNib28vPT09pKenk5qaSnZ2Ni6Xi+bm5tmo96JnjMU91zn5cEKEHz0bZIt16ffCDFbspqKrmFyOcOhoP3Dpb/PFzJg4CtY/wA1rFpLmiyPGPnS8zOEn+dYP3yA04Zw91fH1XvsoX9xQOuEz2nn3Xx/l5WqdCyIiIiIXqtGwaIwhJdlHUlLSuKA4orm5mUAgQFZWFqmpqbhcLo4dO4YxZlYKl4uH1fQ6T3799ZFXs1qLnFrM0oe4//YrcHYc5dD2RgIjX/GmBiKTLH+q4xts2MWOdxtHX8cXraYkbcbLFhEREZEZ5gCIjXEN36PoxhhDfX39uKA4orOzk2AwSF5eHgkJCcTExNDb20tTU9N5L1xEzo2s4hLc9LHjV//I84cn/Bg0jZ7wwNGXee7oidclD6xQWBQRERG5CDgA3O5Y3G43APX19fT09Ey5Ql9fH1VVVeTn5+NyuUhJSbkkwqIxFh++1sk9CRH+7fUIRUvtXOWz8GBoaIvw7L4Q2/qtCesYcrId3FtsY268hRto646wrTLMbxoio8P1jLF4+GYn18WMXd/OpzfY+fSYvxzaG+CbVUMX5ybJzveutuOqDfG5D8b35yxd4uQL+RavbB7kyY4Tn3Em9Zs4O3+/zk7a8SBfqrfxifk2ytwWA4OGI3UhnjwaocNMvxfQmHTWffEbXJc9vo3q336RJzZ1Ry+f+WE+98Xb8e35CY9vz+OOW1eTlxxLoOs4dTue4aXX9tITsaa9/FBNTtKWb2D92pUUZCbhYoDu44fYt+lpNu1uJDwmCBmTyrV/9k3WZe/i19/cQvYDd7OkIJ1Y00NrxTbeevZpDrSGp79/xtT//XfSuO22aynKSMAaaKZ25/O89Ny7tEfOrh5j3GSvvot1a5aRk55IjDVAT1MFhzY/wxvbaghMEfycLhcwSDAQYaqe4DM9vtNxJsdLRERERGaePSs756uxMS48Hg+dnZ20tbWdcqVwOExXVxcOh4PY2FhaWlrOQ6nnmsW8AjvzY8DrszPfYTjUbui22yhOtlGeZaO+LkxD5EQ4yy9x8jdLbOTaoKI1QlUfxCfaWJlnZ27YsKXdYCwLsEj0Wgz2Guq7DSbGIsEOR49FONI99Lf6bkNFi+FQ/3A5bhu35Nuwd0V4oWl8705mhp01iRaVdWH2DFjTqh+XjRsLbXiDFoUFdtzdhspeQ1yCjbJ0O8sdhjeaR+qf3v50xXkJttVy/FgtLaEEMnxuOg+9zO6awejF4+ZRflUZsX0xZK+eh6vhKMda/HizismbeyWlsQfZfrDtRD1nuLwxdjKu/yKfvHcVac4ujh05wLG2ATy5i5l/xVXkBz5gT3X3mO31ULD6QxTG9+HOW0dhbB011Q30OdLIKZrPgqWZNL33Pm3Bae6f0fqd5Fy1GHdTBfXNvbhSCsktWUGp9yjbD7RMux5j7OTc8iifuGMZqa4ejh3Zz7GWQbw58yldtoZiDrCrogNjWRgTR9mNH+WqlUspW7iUosICkr0OXJ40ssqG/la2cCllqX6OVreOntNndHzHSF50C4uzwxx77xUqOqcKo2d6vERERERkpo2b4OZMHosRDocvzcdoWODrCvK/9kbwWxbGWKxe4eCzOTbuzLfxfsVwcHNY3FdqEeMP808bQ+wJDV+kOyz+8Dona8vslNdEeCcMlmXYuCfERkYmuLGR64rw+o5zMMHN6dY/zJZgcXjLIE91D9Vh99j4i2sdzC+yU34gwtZp3pJqWb0cefUJjgy/9l77KEsKk065ni3XS+2/fZk36wJDr1Ou56EvfJSiq29h/nNH2BeZ5vLucq6/oRhnx2Z+/t3/pMI/fLzcC9nwhc+z7Ka7mL/1X9kXmFhQEfHHv8sPnj5IwLIwVhwLPvYV7lu6krVrMjj02tlN9GTLTaD+h1/mjdqhD7biV/ORv/gkc1ffwfKXD/B+3zTr8axh/fp8nP0f8MxjP+CDrshw+2v4yF/8AXM/tIHFb32f3QMAHrKXXMOKcb2ETjIWryVjzF/M4Vpe3HiICNM/vqdtusdLRERERGZM1GyoAAsWLJhyhf3795+zYi4Mhs1VQ0ELhoLeOzWGh3IscsdeC/ss5jiguSYyGhQBrJDhjQbD2mKLskR4p/08l3+69Q+zuiO81MXoaMNQn2FzG8zPsMj2AtG3rp5T1rFtvFs7OHpvXLh1I7uP3k/RwnTS0oHGaS6fW0yOCzq3bhoNHgCWfx/bP2hl2XVzyMuFfZUTK6pnz6aDo0M2LdPL/i076V26jvScQuDswqJV/y5ba07Ub3reYce+B5i7KovUTKBimvXkzSHLDv59b44GxaH2t7Jj3/3MXVVEbj7sPgyW1czGxz7FxuFlSh74Hg9eMTj5bKXnqydv2sdLRERERGbKpGHxctc1MOEPvRHeaYTUDrAZQ8SywAFugBQ7n1wyfvHYhKGLW6/zfFQb7bTqHxYeNPSNeW1Zhp5BA1jEzkL94d7u0aA7VE8Yv38AiMEVexbLx8biAii6kTs+Mn4HuTLdQCzuSR8R2E1314Q/tRxiz14fSce6sczZDNWFcF83AxPW7+3tAdLOrh6XCyfQ1Rt9/+BQ+6m4XNMu+9yb9vESERERkZkyaVi89HsPz4wViPDz94d7Z0Yu7C0LC0hIsnPdJD12xpgL5ikRk9Z/uRk+Xt6CVawoiH7bmNBpHy+rZzuv/tf20XZn26T1DG/vSda6YM7PSc3g8RIRERGR6VHP4nQZgwGqDwT4ytGpbuw7l1ezQ58vp2n4eDW8+P/yk1enGjp6CaUPc6rzw3BBn0CX2/ESERERuQDZZruAi1YI/EDcuRrKF4QBwBMLDnPiqt4YQ1Ls0EXywCU4v9A5MzBAAHB7E2a7knHs3gRizfjUFhcXD/Thnzi5zZkIBAgCnrjo7R1qf5DAhTw5zAV6vEREREQuJwqL09VlqAhBSrad5c4xYc6y2HC1ix/d6uCm2Mm6biL0hQAs4mJO0n6f4WgArBQbt8Sf+LMzwcG6VGDQcPBswsTlpv4I9QHwLb6OMs+Y5xfaslj7ue/zpb/7S65MPP9dbZHcclbnn/jFwYpfzYqFXogcp7XxJCueSm0lDWFwL1zHksQTX3Mrfs1Q+6FK6mrPov2z0NfXB3hISDzJF+ACPV4iIiIilxMNQ52uYJhfH7Yzf4GNz693caDd0BWCtBQbJW5oqomwxU/USDnLsjjQYogkW9x9lYuyLsPIo9Q/OBRkc//ILJcRnj0YYcUSG/dd42Jpa4R2bJSkWaTYYPfBMPvNhTsMz2Sv5bari7APv3ZkpAKQvOQj3JEx0iXawv5nX6By4Dxsh/89Xn91HYW3XclHvpRPTUUdPeFYkgrmkpfkpH3by3zQyXkf2Ris7iL/D7/BH1QfpSMcT1bxXFI9ho4tz7Gz7yzq8W/ljTfWkX/DEjb8xddYeqSKHnxkl5SR4g7Q8NKz7J3k/DxdZ3N8m/bupGPtTcy753/z0QWV9IZG3qlj+y9e57hlXbDHS0RERORy4gBwuYZ+4Y+Li8fuODEFZnKSD4CWlpZJV/Z4Lt/pCC3LorYiwN/6HdxbbGNuqo1YDB19hteOhnmmOkzvFJOf1B4N8ROXgw3ZFityLOyWhTGG7mrY3H9iuaaaIN8IOrivxMb8NBvFQFtPhGcPB/lNExfE5CpTSpnH8vJVOCbUmFC4mhWFQ//bmCraXnqByomzt54DlhWh+fXH+P86NrB+7Ury564kz/TT03qYbW++yNtbD4+bVfV8sfq38NTP6rjttmsoy0jA8jdS8dbzvPjcQcJnUY9lhWl48Z/4r867uO6qZeTPX0U+g/Q27WXblt/yxrvV42bFPWNncXzDVU/z85/ZuPnGK8hfdjWxdtvw8rup/sXrHOfCPV4iIiIilxNr+cpVJicrE7d7kucSnCbNniqXM2PiKLvxHuae6pn0Hbt4/ZXd9FsWJvPDfO6Lt5P4wY/51n+/d17qFBERERE5Ew6A9o5O3APRYfFUPYsiAuAhe8k1rMg+eU+Xaehg8yu7GdN5jKXeMRERERG5QDkA/AMD+AeixwIqLIqcmmU1s/GxT7Hx9BY+1+WIiIiIiMwIzYYqIiIiIiIiUazlK1dNOf98yZyhmSp0T6KIiIiIiMjlRT2LIiIiIiIiEkVhUURERERERKIoLIqIiIiIiEgUhUURERERERGJorAoIiIiIiIiURQWRUREREREJIrCooiIiIiIiERRWBQREREREZEoCosiIiIiIiISRWFRREREREREoigsioiIiIiISBSFRREREREREYmisCgiIiIiIiJRFBZFREREREQkisKiiIiIiIiIRFFYFBERERERkSgKiyIiIiIiIhJFYVFERERERESiKCyKiIiIiIhIFIVFERERERERiaKwKCIiIiIiIlEUFkVERERERCSKwqKIiIiIiIhEUVgUERERERGRKAqLIiIiIiIiEkVhUURERERERKIoLIqIiIiIiEgUhUURERERERGJorAoIiIiIiIiURQWRUREREREJIrCooiIiIiIiERRWBQREREREZEoCosiIiIiIiISRWFRREREREREoigsioiIiIiISBSFRREREREREYmisCgiIiIiIiJRFBZFREREREQkisKiiIiIiIiIRFFYFBERERERkSgKiyIiIiIiIhJFYVFERERERESiKCyKiIiIiIhIFIVFERERERERiaKwKCIiIiIiIlEUFkVERERERCSKwqKIiIiIiIhEUVgUERERERGRKAqLIiIiIiIiEkVhUURERERERKIoLIqIiIiIiEgUhUURERERERGJorAoIiIiIiIiURQWRUREREREJIrCooiIiIiIiERRWBQREREREZEoCosiIiIiIiISRWFRREREREREoigsioiIiIiISBSFRREREREREYmisCgiIiIiIiJRFBZFREREREQkisKiiIiIiIiIRFFYFBERERERkSgKiyIiIiIiIhJFYVFERERERESiKCyKiIiIiIhIFIVFERERERERiaKwKCIiIiIiIlEUFkVERERERCSKwqKIiIiIiIhEUVgUERERERGRKAqLIiIiIiIiEkVhUURERERERKIoLIqIiIiIiEgUhUURERERERGJorAoIiIiIiIiURQW5bwyjhQKr7yLD9+4BLsxs13OjDHGTumNn2T9lfNIdFw62yUiIiIily/HbBcgM88kpPC/HyniCtPB4z85yhvd1myXBIBnTEqEAAAgAElEQVR3zi3cfv8dzEuNIXLgCZ6b7YJmlIU3/0rWzl9D+fpdvP2LJ9hc2TPbRYmIiIiITJs9Kzvnq1O9mZzkA6ClpeW8FSRnL/6qMv55fRKpaT6SWut4tnr2e7o8cx/k4w/fRr7jODuf+zG/fGE7/siFEWJngmVFOL73HWp7YshdUM6iVUtw171PRVtgtksTEREREZkWB0BifBxer4dgMEQwFBx9s6+vD4C0tLRJV3Y6nTidTmpqak76IatXuvhMluHZNwP8uvfsA4IxhnnFDh4otJMbCzH2oTZNS4hHtoYIWpdOCAEwxkH5zSV8YV0qpclO3MPby/4DXPFYAwMTtrfnYAtbOxJZRievHwwB499PvWEZbz6QPOFDBvjp32/m2xUzv+9M3Bo2fGw9aaEKXv3Bd9h6PBxV07jlTRwF6x/ghjULSfPFnTi+h5/kWz98g9AFenytYCvVm5/gJ5VN/N4f3Uv5xz5B/T88zr6+C7NeEREREZGTcQB4vR48Hs+UC3m93vNW0OnwZDn5/AIbLr9hZ71hYOSNHkNkNgs7R+JXlfG9+zKIbe/gja1++kc6Chv6CU2yvHW8gUcebRh5FfW+v76Np97yj75OL8nkmswZLxsAYyyKbr6bUneAqqd/NBwUTy5m6UPcf/sVODuOcmh7I4GR7W1quCiOb/j4Szz14iI+d9dSPnRTGfufOoy5QAOuiIiIiMhUHADB4FBvYl9fH/39/ae9ssfjmZUgWZBi4cWwcXeA/2idcBF+CV6UL5zrI5Egv35iJ1/Zf/bb23ewjr85eOL1ut9PO2dhEdt8Fi32Qf8Wtmxt52Q9iiOyiktw08eOX/0jzx+eMIT2Ijm+XVtfYv9Nc1myZA0FvznMBTASWERERETkjAyFxdBQ/1R/f/8Z3Z+YlpY2Liway2LNPDsbcmxkOKG7N8zr+yM0T9EdZIwhJ9vBvcU25sZbuIG27gjbKsP8piEy5XDDGDuAReDUnVSnzWQX8txXi8jZsY+bN7n563tyKM9yYff3s+O9Kr79q2aqwyfqMSaWz/71Gv44v5lH/6qJRZ+Ywx1zPMSZAFWHG/nRL6p4qXl8QjDGzuJr5/C5daksyYzBS4iWxi7eeL2K77/dQ98U2+t22oAI/sGT1G9i+ZOvrOEzeePb2P4/b/GJV4NTrHVmjLFRemUhf3JDOiuzYvEQoulYBy++VskPtvVPPvw3vZQ8L4T2HKA6wulkRZwuFzBIMDD1CqbwAf7scx/C+f6/8J3/2TPuvZIHvseDVwzy7r8+ysvVw0NYMz/M5754O749P+Hx7Xnccetq8pJjCXQdp27HM7z02l56JtxDaYyLjCs2sO7qFeRlJuOK9NDTWseRrc+yaVslfnOSjQkfoLIyxJJFxRSmQ3XT1IvGzr2Pj310PWnWcd7/+WO8euj0f7ARERERETlXZmw2VGMMCxc6+UyRhQkaDjZH6LZZXL/STkXnZMtb5Jc4+ev5Fq6A4UBzmG4s8lNs3LHSRqk7yN9XRIhYFsZYLC+1s2J4pGxSytBF+vxiJ58cO39IT4T/qgwTPpvep7gMvv1IPJ6KDja1uVgwN4lrPrSIHzp2cOdPOwlEte3i3ocXUORq571dfSTkJVG+pIDvFMQQ/tv9vDp8j6YxFkvvXs6/3xZPjL+f9/c10WJcLJiXykOfSGJZ8g4e+m0PIcvCGAfX31HM+pShT0ifYwdslN8yj6+NnWCzoZGvvdI5HKpD7NvewFPVQ2/FZKVwe0ns9PfDBMZYzLt1Kf99j4+Yvj7e299Im3Exb24ajzySwnLfdh5+uTd63ycm4gX6uzuITHFcjImj7MZ7mJs09Dq+wAXYKbruE9yxasyCTe/wwsZDU7ZzWrxruOuBbBxVRzjcHE9OaRnzb/o86e5/5N+eOTLatjF2sm/8Cz5+cyGuQCu1h7fTFXaTNmcB5fctoLTg//CT/9kVdb/oCMsK09XVAyTgTQROEhbzV6wlJ94FFLBiRSmvHto9/e0TEREREZkhM/foDJeDOwssCET48ZtBtgSGLqJdiXYeXTPZJ1vcV2oR4w/zTxtD7AkNX6Q7LP7wOidry+yU10R4Z7j3sCjbxnWJ4y/M87Ls5I15bVoM/10JZ9Ph6CiIYfdj7/LPVUOt2BLT+f5XF7J+bSH3PrOLn/dOWMFKJK1+Jxt+1kmvZWEsB7c+Us53rsjkU9dW8eoLw3dUetP545viie1r4ctf28fTHWZ8+7cWseHVD3jKD+Bg4cps7pnQS1i2LIeysX/Y3803X+kkBFhWiDeeP8Qbw2+l3rBsRsMinjT+9HYf7rYG/ujrB3mrf/h4eZL4uy8v464Nhdz81l5eGJiwXkwMLqA/MPGNcY2TveQaVmSP3V4nGYvXkjHmL+ZwLS9uPHRW9y3acr3U/tuXebNu6FcGW8r1PPSFj1J09S3Mf+4I+0Yad69m/Q2FuPr38tz3/5Wd7UPng4kt49Y//SKrVt1N+Ru72HSSjvhAYBBIwBVz8pqqt71OdeE60mng/W2Hz2LrRERERERmzqRhccGCBVOusH///snfiIccG/Q2hkeDIsBgZ4ht3XZKJky+ic9ijgOaayKjQRHAChneaDCsLbYoS4R32sGyDE9vCvD08DJLlzj5Qr7FK5sHebJjZu9ZtNU28p+VodF2Il3N/GpXGeuvjqMkBzg0cY1enntlKCgCWCbE795o4UtX5FJaEA8j0+8UJrLAAZ3vNowGxfHtJ7K0CJ7aD5Y1wONfe4PHh5dZ9/vX8PhVkclnKz1f9/AVJLI4Buo3HRsNigBWfwe/2NHPXTf6WJEPL0wj61hWMxsf+xQbh19PNox0zMLT3wbAOraNd2sHR9sJt25k99H7KVqYTlo60Di8YH4x2Xbw73t9NCgCWAOHefe1TcQvTCAYB8zAU2UCFc/wxLeeOfuGRERERERm0Az2LFp4gZYJj5WzLIvuye61c4AbIMXOJ5eMfys2YehC3uucsepOW6AnQPeEQNLSEwTcJMRNtsYgLR0T/tTUwYu7XGTXBLAZMzS0McaOBzjWE/3cvaH2Y3GfogdqVrkdeAFK8/jax8f37XlynYCdhAtr0txJhXu78Y85vpYVxu8fAGJwje2IHe4R7eztjmqj4/0n+eX7cFo3YIqIiIiIXKQmDYtT9h7OJMvCAhKS7FyXFP22MeaivRa3ulv5+x+0Dr8Y3gjbKdfCOuUys2i4tqSiLO4pmuR9E5m8fhPBwEUzi+mMsiwggtFMqCIiIiJyEZq5nsUzZQwGqD4Q4CtHp7qavoQCxilvtDOYC/khgsO17f/NFu5/fqr7Dyc5XoMBgkCsZ4a7HU8jgM12SPN4vMAAgye7XVNERERE5AI1ri/IOsPen3HLBw39QJxr/DLGGBImG14ZAv8ky882V7yLhAkpIy3eCQTp6pl8ndMyGKYfSIqP3uCh9sMnfTTGrPOH6AN8k9R/Uk1NtAOe9By8M5neBgYIALFxPuxj2jXGSXy8GxggeDYhbXCQAOCJS4h6K7n84zz48B9zzZypvy/GJJCR4QVa6TjJTKgiIiIiIhcqG4DNZgfA5/Nht9tPuZJlWeTk5ODz+U78sdtwLAJxmXaucp24eHclOrgqcZJGugwVIUjJtrPcOeZi37LYcLWLH93q4KbY8981FMrP4BNFJ/aBLTGd+5Y5IdJLRcNZNFzVzb4Q+JZlc3fSiZAx2n6wk51VZ9H+WWjtCwEOMlNOcuxrutg9CNnLc7g+bszxsnv4zJfW8t6/LOPjSZMcr6791LSAlb+ChZOdB9PVfIT6frBKrmZN5okOckfWTawosaC3gurms2i/roKGMLgXXs/y5BP7xcTOZfX6qymZm4LVc5KuYF85c/MsaDlERfRtj+O4ijfw8f/1Xf7ir/6SdcXusyhaRERERGTmOADCoRCRSASHw0FBQQE1NTWEw5M/gMJut5OXl4fH48EYw8DAcPdNIMxva+3MK7TxyHoXa1uHnrNYmmTR2AVMnA01GObXh+3MX2Dj8+tdHGg3dIUgLcVGiRuaaiJs8XPeR6IOVAyw8s9W87OjHdSFh56zWOSBYxur+XXPWdTT38TjL+Wy8vY0vvbVcjYc7KKZGBbOS6bQHWbfb6t5rn/67Zv8TL6yLnF0XHFM1tBDKfNWlvC17JFQ4+elX9aw2T/+Qw7uaKb2hgKuf+gK/nVRJ22js9N288v/amCPZUF/C//8XCer7s3ku1+P573DPbQG7eSWJLMs2UbN23U82x5dv2XVs+Odo5TfWcKaO1ew56c7xk0wM12W2c/bL+5j7j0LWf/5r1N8uJJuUsidW4zP1suR371AtTmLz+l/hzdevY68mxdxxxe/zpIjlXSFPaTNWUBmnKFj29O818ykx8uYOBbceTN5thA1WzfRcortLbryBgpT3UAZ5eVlvFmh5yyKiIiIyOxzAHT19NLb7yc7K4PY2FgKCwuprq6OCowul4v8/HxcLhehUIja2trRsGhZFvv2hfi3sJ0NORZlGXZ6+yK8tStEfZ6TiQ/jsCyL2ooAf+t3cG+xjbmpNmIxdPQZXjsa5pnq8OjjKM4nW28Tj/6kjy/fk811mS5s/n42v1bFt37VSeAs6rEswwe/2cnvd8zhc+vSWLYok+WEaW1s4WdvVPP9t3oInc32piVx1zWZuCa0kV6SxT0lwy9MF1XP1rDZP37V4NEq/vgnFl+6I4OV5TnE2YfbME7e+68G9gzXf+jF3Xyso5A/uSGdlQsy8Jggzc0d/OzFGn60sYuOKepvf/tnbF7+V1y37JM81B3iF89/QE/k7I9t+5bH+Y++D3P9+lUUzruCXPx0Nezg7dd/zca9LWc1qY5lhWl45Tv8Z+eHue7q5eSXXUFOpJfu1v1se+lZNr1bycAk7RtbEqW3f5YNSxMJ1D/Di5tbONUvADXb36KhdB2p1nF27Dgy7ZpFRERERGaStXzlqtGxg3a7neysDGJcLgYHB8cFRo/HQ25uLg6Hg4GBAWprawmFQrNW+Ewz2YU899UicrbvZcUPZ+DheTKOiV/K7Z/+Q1ZmuBhs2cfeN57mxW21Q48VuQQYYyOz/EGuX19OcZqbYNNbPP3DJzjcc2lsn4iIiIhcfsZNcBMOh2k43sRgIEBMTAyFhYXY7XYSExMpKCjA4XDQ29tLdXX1JRUUx7lEwsuFxurZzfPf/xa/eesA/b5FrFxefOqniVxU7OQuv44SXx9Vm/6df/+egqKIiIiIXNyiHp0xEhizszKIiYmhpKRkdNKb9vZ2Ghsbz3uRcmmwgg3s+e332PtyOgWZp/E0kYtKmKqXH+PxxkN0DBguqce+iIiIiMhladLOnZHACGCzDS3S2NiooCgzwgw0U13dfMkMQQWwrAjt1QeHg6KIiIiIyMVv3D2LE5XMKQSgpqaGvr6+81aUiIiIiIiIzK7Tum1MQVFEREREROTycmnNMSIiIiIiIiIzQmFRREREREREoigsioiIiIiISBSFRREREREREYmisCgiIiIiIiJRFBZFREREREQkisKiiIiIiIiIRFFYFBERERERkSgKiyIiIiIiIhJFYVFERERERESiKCyKnAHjSKHwyrv48I1LsBsz2+XMGmPslN74SdZfOY9Ex+W7H0REREQuZY7ZLkDkYuGdcwu3338H81JjiBx4gudmu6BZZeHNv5K189dQvn4Xb//iCTZX9sx2USIiIiIyg+xZ2TlfnerN5CQfAC0tLeetIJELkWfug3z84dvIdxxn53M/5pcvbMcfsWa7rFljWRGO732H2p4YcheUs2jVEtx171PRFpjt0kRERERkhljLV64yifFxeL0egsEQwVBw9E13bCwA/f39k67sdDpxOp3U1NScl2Jny+qVLj6TZXj2zQC/7j37gGCMYV6xgwcK7eTGQox9qE3TEuKRrSGC1uUbQi5EJm4NDz76B5RaFbz6g++w9Xh4tku6oNizbub3/uhe8iK7eeofHmdfn85fERERkUuBA8Dr9eDxeKZcyOv1nreCLgeeLCefX2DD5TfsrDcMjLzRY4jMZmESxRiLopvvptQdoOrpH51WUDSmmFu//CVW8Sb/+fUnqbvEw3/4+Es89eIiPnfXUj50Uxn7nzqMucS3WURERORy4AAIBod6E/v6+qbsRZyMx+NRkJyGghQLL4aNuwP8R+uEi2pdZF9YbPNZtNgH/VvYsrUd0PGZTNfWl9h/01yWLFlDwW8OU605b0REREQuekNhMRQChoabnsn9iWlpaZdUWDSWxZp5djbk2MhwQndvmNf3R2ieorvPGENOtoN7i23MjbdwA23dEbZVhvlNQ4TQFMEvxg5gEZih0YymtJQ3/zKXwz/dxKc3hTEmhX/4lyXcbo7zuc8fYKNlYS2fz3ufTeKpf9zMN49YGBPLZ/96DX+c38yjf9XEok/M4Y45HuJMgKrDjfzoF1W81Dz+it8YO/NX5/PpdekszYoh0RamuaWbt9+s4vG3e+gyJ7bXZBfy3FeLyNmxj5s3ufnre3Ioz3Jh9/ez470qvv2rZqrD019+qB4bpVcW8ic3pLMyKxYPIZqOdfDia5X8YFv/uOG809leANJLyfNCaM8BqiOcZlb0ExgETD/+kx034yZzxc2svXolOWnJeOx+elprObL1t2zaVoV/7P40qVz7Z99kXfYufv3NLWQ/cDdLCtKJNT20VmzjrWef5kDr+BPKWEmU3fQg68rnkeaF/uYj7H7hpzSXf5N7Fjez6R//ho3NYz7DlkLp9XdxzcoyUhN9uB0h/D2tNB58i43Pv0Jd/0k2PnyAysoQSxYVU5gO1U1TLxo79z4+9tH1pFnHef/nj/HqodP/gUpEREREzh/NhjrMGMPChU4+U2RhgoaDzRG6bRbXr7RT0TnZ8hb5JU7+er6FK2A40BymG4v8FBt3rLRR6g7y9xURIpaFMRbLS+2sGB7pm5QydNE9v9jJJ8fOB9IT4b8qw4TPtHfxWC81QG66G+iFZA8FjjD9di9zkmFjB+Rkeog1vVTUT1zZxb0PL6DI1c57u/pIyEuifEkB3ymIIfy3+3l1+B5NYyyWbljGj+9MwNXTy3sHWugwDorLUnjw91JYk7OT+37eycDE2uMy+PYj8XgqOtjU5mLB3CSu+dAifujYwZ0/7SQwzeWNsZh361L++x4fMX19vLe/kTbjYt7cNB55JIXlvu08/HLvJPvy9LZ3VGIiXqC/u4PIFMfFmEI+9McP4qt+h+1vb6K6s53uboMJt9MJ2JPmsfzq61hS0MzvHn+K45aFMXZybvoCv3dTIfa+emqO7qAPL2lzFlB+3wKKM7/Lj35zcJIfHOJZ8dDDpLoOU73vOO6sMgoX3MS9ecn88js/5FD/if2TefPnuf+GHGyDLdQcqKLXns7Shx6muXGybbCRc+vneWBdFqGOCir37scfsuNOK6O4/H4eynLy799/gZYp9oFlhenq6gES8CYCJwmL+SvWkhPvAgpYsaKUVw/tnnphEREREZk1CosjXA7uLLAgEOHHbwbZEhi6KHYl2nl0zSTLOyzuK7WI8Yf5p40h9oSGL9IdFn94nZO1ZXbKayK8M9zZU5Rt47rE8RfaeVl28sa8Ni2G/66EM+5w7OunpgeWpLqxmR7C2W7yWtvZ7vBRlAV0wJx0N3R2c7if8b1jViJp9TvZ8LNOei0LYzm49ZFyvnNFJp+6topXXxi+o9KZzEevcRM8Vsef/cMRtvqHt9edxNf/Zhn3rCvkzmd28csJXWmOghh2P/Yu/1w1tFW2xHS+/9WFrF9byL3P7OLnvdNc3pPGn97uw93WwB99/SBvjYQkTxJ/9+Vl3LWhkJvf2ssLA+PbP+3tHRETgwvoD0xsaIzMxZQVFJFeNIeF19xC5ds/Z3tjK+2mj9I7v8hN18wj0WFhIg2UZj7F8SbAuYgrrkwnfPxN/ucHT1I9MFx/7Hzu/PMvsPyq21j80kF2TvxYWxHxx7/LD54+SMCyMFYcCz72Fe5bupK1azI49Frz0HL2Fay9Ngdb8CivfO+feGe419FVeC+f+FTpJBuRy4LFWdiCe3jhsX9mz0g9Jpbim/6A8txk0pOhpWPq3RAIDAIJuGKmXgagetvrVBeuI50G3t92+OQLi4iIiMismTQsLliwYMoV9u/ff86KmVXxkGOD3sbwaFAEGOwMsa3bTknyhOV9FnMc0FwTGQ2KAFbI8EaDYW2xRVkivNMOlmV4elOAp4eXWbrEyRfyLV7ZPMiTHTNxz2IfVc3gSveQC/izPHibm9hkS+WWbBdmX4TCdCemsY/oS/NenntlKDgBWCbE795o4UtX5FJaEA/D0+9YoTb+95feHinyRLn+DjZVhLmn3E1hBlA9vnVbbSP/WRka3a5IVzO/2lXG+qvjKMkBDk1z+YJEFsdA/aZjo0ERwOrv4Bc7+rnrRh8r8uGFqA0+ve09E1bTs/zk24dZuHIVZaUlZJY/zAaHDZv1+9wVCdBzfC87D33Avve2UNk2/Lmh3fz2G38WvT8HDnC4epDly9NISQPqJn5aPXs2HRztYbVML/u37KR36TrScwqB4bCYlkuaCyL73mJby4n9OVj1CnsbbiazYGK7Nmw2IBIkNObXCssaoPKV/0PlhDrPRqDiGZ741jMz0paIiIjI/2XvzqPkrO47/79vbd1V1Xt39b6qta+0BI1ACAEGYZvdEBNwYhJD4rE9w3hLnJxJ4uQXh5wkjsEzjsd2mEzsMWYcD/tiEGAsCQkhQCC0Ly31pt73vaqr6v7+6FbTS2npbqm7JX1e53A49dR9bn2fW0/D8627yfmjnsWTPAY/0DxumzhjDF3BGOVd4AVId/KFlWPfik8aeqj2u89DnDEYE6aifhDWeCkBBnP8nGjo5rAryB9n+wBLYQAaPuihd0IyGpzYW9TYzisfesitCuGwdmT4pTUuVl6RzTUFXrL8DhzDxTMLDeDA6ZwYW6g7RNe4z2zuHgS8JCVMo7zXhR9gQQH/3+fHTir15bsBJ0kxp9Oe/fVORrjtELtfO8Tu18A77w7uu+9qEmlj18//O1urYs9ctCaB3FVrmZ8XINHnHmnPxHwn4MQRoz2hi67OcYeaD7FnbwqpJ7ow1g6tRJqYgBfo6x47fNaYLjq7Yk3CreHg3mbK16/m9m98k0UHK2hsrKOx5hDVJzoI23OTKIqIiIjIhSNmsnjR9h6eS8ZggKRUJxtSJ75trZ3RhTMPN/SC10tRsotoppvKHb0c8vSRsdpPoidCQTIcr+s9q7pMVwv/8MOW4Rcnh9cm8l//9DL+qNiFiZVM2cGJx86n4cwqtSSHz5TEeN9GMY4Yx2OIdb2j67Gxjp+Cp+Qz/N5Dn8T77qO87H6I3/3jr+P48T+xuXrsrxDWVcoNX36YdQVeHDHqtpNYTdR0v8/rP31/XPxD92esakyMo8ZEqHrxUX7ZdyfrLl/OsnWLWDlc12DnEXY99+9s2t14+i0xjAGik4pdREREROYu9SxOlbVYoPJAiG8fPdXT8cxliw11ffSQTmGWH7L6OVYbpTuul9ZP+lmQE6HQBNlcG55yTPM2LuKhYicn3jvIN/9vI/s7IyM9Vtf9wTX84OpzeDFnY7hzbP+z2/nsS6caOnoO2j8YYhCI95151V+bUM4dD3ySbA7x8hv7Oex+hZrVv8O1f/CHNP7zjzg4arP6jA33sa4gno6Pfs5Tz+6goSs4kojNv/cx7rt8mnFHIoQBt3Psn7i1DpzO2Fm0ibZw5PXHOfyawZ2URWZOIfkLr6R83QrK73+QzhOPsKP11B/p8/mBAYKTH8krIiIiInPQmKfGmD1GpzHZ8nPaoKUPSPCMPWytJSnWgh1h6I9RftbU91NNHPmFCRQl9VJxAjjRR3WKl4WFXrLt8LEpsNaytDABB328+EIde7uiHw9NtQZf/Km78DyJHpLGdTUFEt3AIJ3d0yjfH6YXSEk8z19AYyNtgC8zD/9pusysdVL6qXtY7B+k9vUn2dUJtLzBy69XEk5cw8aNi3EMn2+tITsvD0MDezdtpr47NJIoWusgLu4cjF9uaaEL8OYUjm1PRwk5Oaf/uzXGEu5uoO7wTt554Qc89VYjOIspnnfquKxNIivLD7TQfpqVUEVERETkwuEAcAxPjkpJScEZa+LZOMYY8vLySElJOb/RzaQuy4koJGQ7udrz8cO1J9nF1ckxyndaKsKQnuukzP1xeWsMt6/z8JNPudgYP4Pj8Vp6OR6EnKXpFLX2cWQQ6Omnss/H1St9uDt6OXy6Tf9OwxhDa3cIiOeyxV7MqOTDX1TA3QtPnSyGC7N4oOTje8qRnMk9l7kh2kNF3TTKV3WyOwi5ZXnckDCq/Z0+/tO31vPu/7iMz6eeg/bv3E9VM5jC1SyLdR8MMyZCxXOP8fzLP+PZN09gjcGYKI1vPM7zLzzOEy8cHEmwjbH09nQDaeSXBsa0p6dgI2WlZ/4bPKOuvRyri0L+Tdz1qTICCfF4kopZdc/dLHRPXG/X+tZyxzf+hi9+/gaSzeh2c+NPiANCDPSdZp3elHIWFRhoPkRF1+lD85Tezuf/7FG++ed/wnWl3ildnoiIiIicfy6ASDhMNBrF5XJRVFREVVUVkUjsB0On00lBQQE+nw9rLQMDF8mYs1CE56udLC528EfXe1jfMrTP4oJUQ0MnMH411MEITx12smSpg4ev93CgzdIZhkC6g/leaKyKsr2fGRyJ2ktlI3xiYSrOw03Dq572UNkQzxeXRIlW1HJkGrW/t7WOQ+tKWPu75bx4eSt7W6PEpyaypjjCriMhWB77vIGKAdZ8dS2/ONpOTWRo38QSH5zYXMlT3Uxon7Mu39fMf3+xgyvuzubRv03k3cPdtAw6yZ+fxmVpDqrequGFton1T5YxtezacZTy2+Zz1W2r2fPzXfSfaq/BUB2736wb86HGNrFvS9OEQKp3bqWh/DZK7vwrvrzqICc6QrZRE7gAACAASURBVLiTCigqDFJ9vBsWTTfuerY9t4nFD32Sohu/wpduHDoerH2Rd6vmsW7ZuBN6D3C87bOsXHEvf/SNVRyrbSUU9eALzKOkOIVo61vsPhKdcB0A1iaw9LabKXCEqXp7yyn3Yjyp5MobKc7wAgspL1/Ibyu0z6KIiIjIXOQA6OzuoarmBMFQiPj4eIqLi2P2MHo8HkpKSvD5fITDYY4fP86xY8dmPOjzwRjDvn1hflQRpT4CC7OcLPbB9g/DbImxGqoxhuqKEH/zfoRdfVCY4eCKbENyyPLGnjB/91FkZHuGmYl/gIrGCPHxLhoaehk0BmMGOdYYxj98rG8a8QxWVfGfHj3Cc0cHiM9L56aydBa6uvk///Mjnmw79XmOnkb+9PE6WtNS2bAilaxIH9ve2MsX/2/HyPYPUylvjOXQK7v53ONV/LbZweKlWWxcmUxGTzu/+MUuHvg/LbSfo/Zve+sXbKsdJOmyL3D/7StJdEy/xzJS8yJP/uQ/+PB4O67sZSxZvpQs9wl2/PRf2HmavQwnI3zsaR7/7qO89Momdm7bxOanv8+PfvAsjTEWQzWmk91PfJdnN39EhzufBWXrKFtTRmFahMbdL/Crf32C46EYiaIjlQW3P8ztq5IJ1b7EK9uazxhX1ftbqesOEeqpYteu6fyEISIiIiLnkylbc8XIk6/T6SQ3J4s4j4dgMEhlZeVID6PP5yM/Px+Xy8XAwADV1dWEw+FZC1zmNptbzIt/XULe+3tZ/eMzJxCTLT/TbOIqbvniQ6zJ8hBs3sfeN5/hlZ3VU9pmY7Ytf+DH3LW8ns3/+G22NE8tfmsdZJffxw3Xl1Ma8DLYuJVnfvwzDndfeO0hIiIiIrGNmWwWiUSoq28kGAoRFxc30sOYnJxMUVERLpeLnp4eKisrlSjK2ZlsMjVHky/TvZuXvv/3PLv1AH0py1lTVspZ7swxp1ibQ0bAQLSV9tP0CJ+Zk/yyDcxP6eX4ln/j3x5ToigiIiJysZmwdcbJhDE3J4u4uDjmz58/MiS1ra2NhoaGGQ9SZC4wg3Xsef4x9m7KpCh7ZPeOOctaPwtuvJvFI/NtXXizF7MgC3p2v82Rqe+kAkQ4vul7/KDhEO0DdjoViYiIiMgcFXOfxZMJY0lRAQ7HUP9JQ0MDbW3T6ooQuSjYgSYqK5mzvaAf85Kz/BpWFwxvyxENE+xuomb782z69bsMTCN+Y6K0VR48V4GKiIiIyBw0Zs7iePPnFQNQVVVFb2/vjAUlIiIiIiIis+uspl0pURQREREREbm0XIhrdIiIiIiIiMh5pmRRREREREREJrhkk8WEhAQSEhJmOwwREREREZE56ZJNFkVEREREROTUlCyKiIiIiIjIBEoWRUREREREZAIliyIiIiIiIjKBkkURERERERGZQMmiiIiIiIiITKBkUURERERERCZQsigiIiIiIiITuGY7AJGLjfU4+P3VThYS5eldYT4MmdkOSURERERk0tSzKHKO+XKc3BRwUBRwsTFHf2IiIiIicmFyASQnJuD3+xgcDDMYHhx5s7e3F4BAIBDzZLfbjdvtpqqqagZClbNlrWVxqYt7i53kx0Occ6hnyzaH+aO3wwwa9XSdT32tEfb1w3ws77dEAbW3iIiIiFx4XAB+vw+fz3fKQn6/f8YCkunz5bh5eKkDT7/lg1rLwMk3ui3R2QzsEmF6ovzj6ydbWomiiIiIiFyYXACDg0O9ib29vfT19Z31yT6fT4nkHFSUbvBj2bw7xP9uGZesqFdRRERERETOwlCyGA4D0NfXR3Nz81mfHAgElCzOQXFOAEMocvpy1hrmFTq5q8RQ6jd4sXT0wgfHwvyqJsrAqMTSWsMd17r5TFKUH/0mSskqJ1enGHxY6lqjvLAvzM6+6SWi1nrJXn0z69etIS+Qhs/ZT3dLNUfefp4tO4/Tb0fHk8G1X32E63I/5KlHtpN7712sLMok3nbTUrGTrS88w4GWsQ1gTSoLN97HdeWLCfihr+kIu1/+OU3lj/CZFU1s+ae/YnPT1K7BWsNnNri5M3ns+Yf2hnjkuJ1YPsHJP1znJFA/yLdqHTywxMFCr2EgaDlSE+aJo1Ha7cXVntaRzoIb7uSaNQvJSE7B6wrT391Cw8GtbH7pNWpOcf/EL7qHz/3u9QRMPe89+T1eP3T2P2iJiIiIyNQ5c3Lz/jo+Pg6fz0dfX9+kehb9fj9+v39SCeZc4fF4AAiFQrMcyfRZayhb4OLT+Q7KshwsS3eQ5YE4j4PijKFjZVkOynzwUXsUawzWWkoXu/jzpQ5ynVDREuV4LyQlO1iR52AFlq2tFjuSMBoWFzlZEgf+FCdLXJZDbZYup4PSNAflOQ5qayLURaeabDnJ2/hNHrjzCgLuDuorDlPX2k9czlIWXXYNi7xH+eBgC9GReHwUrf0ExYm9eAuuozi+hqrKOnpdAfJKlrB0VTaN775H66AZaaPsm/+U379xIYm0U3PoEM2hNBatX0ViKI201F6qtr9JVe9UEzRDvMcQ6rNUdVrqolDgNbQ2RdjaEaO4x8FNxQ78g4biIifeLsuxHktCkoOFmU7KXJY3m0a3/+TMtfa01kHeLd/i925cjC9YR+XhA9TUNtDryKJ42eWsmB/h8I4j9MW43nkbv8jVxfE4PSkEqGDb3sYptYmIiIiITI62zrhIlOQ62DCuV6sgx0nBqNe22fJ/jkEEwO3k7lIHnlCU/7VlkK0DQ+c6PA7+y3UuyhY4WXc8ypbwuA8ykNI5yJ/tjdJvDNYa1q528aU8B7cVOnivYmIv2llxL+fyKzOJ1P+WX/7wCSqH47HxS7jt61+j7OpPs+LVg3wwMO48RwmJ9Y/yw2cOEjIGaxJY+rlvc8+qNay/KotDbzQNlXOuZv21eTgGj/LaY//MjuFeMk/x3TzwxwumFvMoxlg+PBrmw+HXSSVurk4783mOJMPh7UGe7hq6XqfPwTevdbGkxEn5gShvT7E551575rN0RQ6OwT28/L3/zp6T8dh4Sjf+IeX5aWSmQXP7xDMrd/6GyuLryKSO93YenmKDiIiIiMhkxUwWly5desoT9u/ff96CkakxxvLMlhDPDL9etdLN1woNr20L8kT7KeYspjgodkBvQ2QkUQSIhqK82WApKzSUpsCWlvGfZtl2fChRPPnZO6os9+cZ8lOncQ3h3Tz/na+efPXx8YEDHK4MUlYWID0A1Iw/s5Y9W4YSGwBje9i//QN6Vl1HZl4xMJzcBPIJeCC6bys7m8Mj7RA8/hp7624mu2jqsU+H6YryaicjlxzutWxrhSVZhlw/0DPFeudcezpwOIDoIOFRo1mNGeDYa/+TY+PiHC1U8Rw/+/vnJtkCIiIiIjJd6lm8VDktcUBLjFG4XSEAQ7wz9qmd43ujeqLsaICMdnBYO2po4+RYk0DuqrXMzwuQ6HOPbAKamO8EnDhixtNFV+e4Q82H2LM3hdQTXRg7PJQzMQEv0NfdPiY+Y7ro7Jq9NWIjQUvvmHgs3UELGOLd06t7brVnDQf3NlO+fjW3f+ObLDpYQWNjHY01h6g+0UF4mvMzRUREROTci5ksqvfwEmDMmTd1OMvndxOK8uR70ZF6p8K6Srnhyw+zrsCLI0YddhLDMU33+7z+0/fHxTN0vbGqMTGPXtjmWnsaE6HqxUf5Zd+drLt8OcvWLWLlcF2DnUfY9dy/s2l345TnaIqIiIjIuaeexUuVtWdOkWYwh8rYcB/rCuLp+OjnPPXsDhq6giOJw/x7H+O+y6f5AZEIYcDtHHvLW+vA6XTEPucCNhfb00RbOPL64xx+zeBOyiIzp5D8hVdSvm4F5fc/SOeJR9jROs24REREROScGfNUZyb5q/5ky8scEjEEgUTPxLeSPACWgTNsvXGuWGvIzsvD0MDeTZup7w6NJDbWOoiLm+Z4TICWFroAb04hSaO71Rwl5ORcXPfxXG9PYyzh7gbqDu/knRd+wFNvNYKzmOJ55yAuERERETlnHACO4clLKSkpOJ2nmKg2ijGGvLw8UlJSzm90cv50WI5FwZ/tZH38xw/7Do+D67MNRCxHY6xMeT4YY+nt6QbSyC8NYEYlH56CjZSVnvmePKOuvRyri0L+Tdz1qTICCfF4kopZdc/dLHTPUFY8Q+Zie1rfWu74xt/wxc/fQLIZ3WXtxp8QB4QY6Iv9PXhKb+fzf/Yo3/zzP+G6Uu/0YxcRERGRs+ICiITDRKNRXC4XRUVFVFVVEYnEfnBzOp0UFBTg8/mw1jIwMH61E7kgDEZ55qhh0UIHD17n4ermKJ0YSjIcZLktlYcibA9z1vMWp6t651Yaym+j5M6/4surDnKiI4Q7qYCiwiDVx7th0fTqN6aebc9tYvFDn6Toxq/wpRuHjgdrX+TdqnmsWza9+m2igwdKHCPjut2JQ//OynXyhcSRUryzL8y+yPlv1DnXnr0HON72WVauuJc/+sYqjtW2Eop68AXmUVKcQrT1LXYfiRLrhiu58kaKM7zAQsrLF/Lbit3TC15EREREzooLoLO7h56+fnJzsoiPj6e4uJjKysoJCaPH46GwsBCPx0M4HKa6ulrJ4gXKGEvFoQh/PwB3FRsWZDqIw9DZG+WN/RF+VR0lMoPDjCM1L/LkT/q5/ub1zMtexpL8IN31B9nx019Su+IvppvbABA+9jSPf/cAl61eTiAR+hsP8OHOPeTf/6npV+53sKHQgWtcm6WkOdkwvN+itVHqD8O+GejInGvtaUwnu5/4LnbjXVy5Yh4LyhbjIUx/TxuNu19g+69f5ngo9v1W9f5W6hZcR4apZ9euI+cgchERERE5G6ZszRUjY8KcTie5OVnEeTwEg8ExCaPP5yM/Px+Xy8XAwADV1dWEw+N3bL9wJCQkANDTM8WN7OSisfyBH3PX8no2/+O32dJ8cc1fnA1qTxEREZGLw5gFbiKRCHX1jQRDIeLi4iguLsbpdJKcnExRUREul4uenh4qKysv6ERR5CRrc8gIGIi20t4229Fc+NSeIiIiIhePCVtnnEwYc3OyiIuLY/78+SOL3rS1tdHQ0DDjQYqcC9b6WXDj3SxOO3nEhTd7MQuyoGf32xyZwTmaFwO1p4iIiMjFLeY+iycTxpKiAhyOoc7HhoYG2trUVSAXMi85y69hdcHwNhLRMMHuJmq2P8+mX7/LgLaCmSS1p4iIiMjFbMycxfHmzysGoKqqit7e3hkLaiZozqKIiIiIiMipOc5chIsuURQREREREZHTO6tkUURERERERC4tShZFRERERERkAiWLF6iEhISReZciIiIiIiLnmpJFERERERERmUDJooiIiIiIiEygZFFEREREREQmULIoIiIiIiIiEyhZFBERERERkQmULIqIiIiIiMgEShZFRERERERkAiWLIueRdaVTfOWd3HHTSpzWznY4p2StkwU3fYHrr1xMsmvuxikiIiIiM8c12wGIXKz88z7JLZ+9lcUZcUQP/IwXZzug0zL4C69k/ZKrKL/+Q976j5+x7Vj3bAclIiIiIrPImZOb99enejMtNQWA5ubmGQtopng8HgBCodAsRzI1F3r8Fzvfovv4/IOfptBVzwcv/iu/evl9+qNmtsM6JWOi1O/dQXV3HPlLy1l+xUq8Ne9R0ar7S0RERORSpZ5FmXOsTaDo+nu58aplBFISiHMOJVn28BP8/Y/fJGzmbtIFYBOu4vbPXU8gXMHrP/wub9dHgLkdM4AZbKFy2894/Fgjv//luyn/3APU/uMP2Nc792MXERERkXNPyaLMOXGr7uezt1yOu/0oh95vIHRyCl1jHdFZjezMrDWU3HwXC7whjj/zk+FE8cISqX+Vp19ZzlfuXMUnNi5k/9OHsXM8QRcRERGRc0/Josw5OaXz8dLLrv/3T7x0eNxiK3M9aXEsYfmKFOjbzva327gQehRj6Xz7VfZvXMTKlVdR9OxhKrXmjYiIiMglR8mizDlujwcIMhiKcqpkyxbfy1e/8gnc7/0PvvvLPWPem3/vY9x3eZB3/uVP2VQ5PIQ1+w6+8o1bSNnzOD94v4BbP7WWgrR4Qp311Ox6jlff2Ev3uDmF1nrIuvx2rlu3moLsNDzRbrpbajjy9gts2XmMfhsjtswFFPghvOcAlacOf7h+L9mrb2b9ujXkBdLwOfvpbqnmyNvPs2Xn8TH1W5vBtV99hOtyP+SpR7aTe+9drCzKJN5201Kxk60vPMOBlrG9mNaksnDjfVxXvpiAH/qajrD75Z/TVP4In1nRxJZ/+is2N50iwMgBjh0Ls3J5KcWZUNl46usQERERkYuTkkWZddYmsPCmz7Aodeh1YpEHcFKy4QFuvWJUwcYdvLz5ENHp9C76r+LOe3NxHT/C4aZE8hYsZMnGh8n0/hM/eu7ISN3WOsm96Zt8/uZiPKEWqg+/T2fES2DeUsrvWcqCov/J47/8kIHxsSQn4wf6utpPG6e1TvI2fo3f31iMs7eWqqO76MU/Un9p9qP85NmDMeZnJrL6/gfJ8Bymcl893pyFFC/dyN0Fafzquz/mUN/J+A3ZNz/MZ2/MwxFspurAcXqcmay6/0GaGs7cTMZE6OzsBpLwJwNKFkVEREQuOUoWZQ7wkbvyGlbnjk6M3GStWE/WqCP2cDWvbD40rXmLjnw/1T/6S35bM7TKpyP9Bu7/2u9Ssu6TLHnxCPtOVu5dy/U3FuPp28uL3/8XPmgb6rWz8Qv51H/9BldccRflb37IlvELBcfF4QH6QgOnD8S9nMuvzCRS/1t++cMnqBwYTvLil3Db179G2dWfZsWrB/lgfDWOEhLrH+WHzxwkZAzWJLD0c9/mnlVrWH9VFofeaBoq51zN+mvzcAwe5bXH/pkdw72OnuK7eeCPF5xVW4VCQSAJT9xZFRcRERGRi4ySRZl1xjSx+Xt/zObh17GGkY4qPL3POrGTd6qDI/VEWjaz++hnKVmWSSATONnrVlhKrhP69/1mJFEEMAOHeeeNLSQuS2IwAZjirjImvJvnv/PVk69G1X+Aw5VBysoCpAeAmvFn1rJny1CiCGBsD/u3f0DPquvIzCsGhpPFQD4BD0T3bWVnc3jkeoPHX2Nv3c1kF00tbhERERG5dChZlEtKpKeL/lEJpzER+vsHgDg88aMKDvcQdvR0Taij/b0n+NV7MN3Fa6xJIHfVWubnBUj0uXEMH0/MdwJOHM5YZ3XR1TnuUPMh9uxNIfVEF8baoZVLExPwAn3dY4fDGtNFZ9dcX1NWREREROYCJYsi55KNYuGMPaDWVcoNX36YdQVeHDHK2kmsPmq63+f1n74//OJkXQYDxKrGxDwaq6ABopOKRUREREQuHkoW5cJ0FgnMrCQ5wRCDQLzPf9piGRvuY11BPB0f/Zynnt1BQ1dwZC/DoWG404wjEiEMuJ1j/8StdeB0OmKfM47P5wcGCJ5h+qWIiIiIXJzO7qlRZK4ZGCAExCek4ByVFVrrJjHRCwwwOJ0kJxgkBPgSkia8lVb+ee578D9zzbwYvYeNjbQBvsw8/KfIVq01ZOflYWhg76bN1HeHRhJFax3ExbmnEfiwlha6AG9OIUmj43CUkJNz5uGz1iaRleUHWmjXSqgiIiIilyQli3JhajpCbR+Y+eu4Kvvj3jNXzkZWzzfQU0Fl0zTqr6mgLgLeZTdQlvbx5EEbv4i1169j/qJ0THeMuX+d+6lqBlO4mmXJsas2xtLb0w2kkV8awIxK5jwFGykrjTlZcXK69nKsLgr5N3HXp8oIJMTjSSpm1T13s9AdOfP5KeUsKjDQfIiKidM2RUREROQSoGGockEydj9vvbKPRZ9ZxvUP/y2lh4/RRTr5i0pJcfRw5NcvU2mnsQBN3w7efH0DBTcv59Zv/C0rjxyjM+IjMG8p2QmW9p3P8G4TE9a4MaaWXTuOUn7bfK66bTV7fr5rzII6J1Xv3EpD+W2U3PlXfHnVQU50hHAnFVBUGKT6eDcsmnroQ3HUs+25TSx+6JMU3fgVvnTj0PFg7Yu8WzWPdctOfa61CSy97WYKHGGq3t5C8zRXoBURERGRC5OSRblgtW3/Af+79w5uuP4KihdfTj79dNbt4q3fPMXmvc3T2mbDmAh1r32Xf++4gw3ryihceDl50R66Wvaz89UX2PLOMQZOUX/bW79gW9mfs+GyL3B/V5j/eOkjuqNjy0ZqXuTJn/Rz/c3rmZe9jCX5QbrrD7Ljp7+kdsVfTDdXBCB87Gke/+4BLlu9nEAi9Dce4MOde8i//1OnPMc6Ullwy5e4fVUyodrneGVbM9Nd9VVERERELkymbM0Vp1wGZP68YgD2798/YwHNlISEBAB6enpmOZKpudDjv9jZxFXc8sWHWJPlIdi8j71vPsMrO6vHbGMxW5Y/8GPuWl7P5n/8NluaP54rmV1+HzdcX05pwMtg41ae+fHPONw9+/GKiIiIyOzQnEWR88B07+al7/89z249QF/KctaUlc6JPzZrc8gIGIi20t42+h0n+WUbmJ/Sy/Et/8a/PaZEUURERORSp2GoIueJGaxjz/OPsXdTJkXZEGM5nPPKWj8LbrybxWknj7jwZi9mQRb07H6bI2FGjTCNcHzT9/hBwyHaBywaeioiIiIiShZFzjM70ERlJdOaQzk1XnKWX8PqguGhptEwwe4marY/z6ZfvztmzqUxUdoqD85wfCIiIiIylylZFLlIGdPC1u//MVtjvzvD0YiIiIjIhWYuTKMSERERERGROUbJooiIiIiIiEygZFFEREREREQmULIoIiIiIiIiEyhZFBERERERkQmULIqIiIiIiMgEShZFRERERERkAiWLIiIiIiIiMoGSRREREREREZlAyaKIiIiIiIhMcFbJotPpPN9xiIiIiIiIyBxy2mTRWks0GmXevHnExcXNVEwilyzrSqf4yju546aVOK2d7XBEzgtrnSy46Qtcf+Vikl26z0VEROYq16neSE9LxRiDMQaHw0FJSQk1NTX09vbOZHwi55z1ruKKdXeQaQ/x4bb/S92Ame2QAPDP+yS3fPZWFmfEET3wM16c7YDkgmC9iZRenUUyPVRtq6dtjtzPp2fwF17J+iVXUX79h7z1Hz9j27Hu2Q5KRERExnHm5Ob99fiDaakppKWmYK2ltrYWYwzx8fEkJycTDocZGBiYjVjPKY/HA0AoFJrlSKbmQo9/NrlL7uf6JfPxJc4jvvt1jreFZzskfIvu4/MPfppCVz0fvPiv/Orl9+mPXggP/TLbnCV5rFicQFyiH1dXC01tc7+nzpgo9Xt3UN0dR/7ScpZfsRJvzXtUtOq/ZyIiInPJhGQxPTWZtNRUrLXU1NTQ09NDV1cXxhj8fj+JiYkYYy74HsYLPdm60OOfTZGwj0DBQuIHD3Lwo620hc5dUmZtJitveZSNVxbRtfsdOsyZ67YJV3HPl+6iwFbw+g//gd/sbyYYI1G0Npllv7eQJUvi6NrbST+JLL53Ecsu89H3UTt9oz7LJmVyxT3zKE0NUl0VHFNP4NrlXH5NCraqhc6gEtKZFli/nMvXp0D1uWn/aNhBYr4fz2APJ/a00XMO7+fJmMz9CWCifXTU7ObDgyGK15SzdEU2re/upHlQ96SIiMhcMTIM1VpLeloKqeMSxZOampoIhULk5OSQkZGBx+PhxIkTWM2rkguM6foNbzz9m5OvZjUWaw0lN9/FAm+I48/8hLfrI6crfYoj+hu8lJmuNvY+03by1SxGMrX7M1L/Kk+/spyv3LmKT2xcyP6nD2PP4kcWEREROf8cAPFxHvJzs0d6FGtra8ckiid1dHRQXV1NNBolKSmJefPmkZWVNeNBi1w0HEtYviIF+t5j+9ttZyhsiUaAcIShlDJKNAxELNHzHafIGU39/ux8+1X290Hyyqso0oZOIiIic4YLwOuNx+v1AlBbW0t396kXGujt7eX48eMUFhbi8XhIT0+nsbFxZqKVi5ZNvoPbb7uFxOrHefpwgPKya8lOScKEmmiqfIl3d71Djx01zNJmsPxTj1CW/iFbn9lO2lV3UZqRiYduOhp3sve9Z6juiYwqn8nKW77DZeljeywa3v0Grx3sOm08zx0r4MrL1hJIiCfcV0/z8ed4d+9e+ofjsXYxV/3O11ngHV33KtZ//nHWn+mzMhdQ4IfwngNURjlDx1CUyCBjHsYjYcBEORezLq11kDg/i6IFySQlu3GZCKGOPloON1BZ0U9kuLfHBnK5amM63Tv2sa8iirUJLL63hCw62PPLatqNwRYUsP5aP/WbDlDRPLleImud5Ny4hIXZURre3MfhurHn20Auazem42msY8drLQyejOss4wewGdmsvTmAo+I4b+8Y+8NY6tqlrCiNUvvqAY61TL2Hyxo3mZflUlSSgNdjCXX0UPdBHf2nGI0xqfitm6JPL6Zk3P3c/u5+Pjo08W6wyZlccWsW3uoq3jnuZcGqVFISnET6gnQer+fovh4G7bh2Ni7Sl+dSND+RhDgIdfXS8EEtffMXs6QwROULh6juGn3ONO7PyAGOHQuzcnkpxZlQqf+liIiIzAkuYGQoaUdHx2kTxZOCwSDHjh0jKyuLlJSU8xuhXFo8V3LN+nyczRWc6E0gNWsReUseJMnRxQs7DxCdMDwtkflXP0iy6zCNtfV4UhaSnb+Ra9PS2Pzij6kZmb/VR2v1WxwZ7rxzJi1nXlbqWcRzFVddnYuz6Qi1nYmk5y6kcNXDJHv+iRffOzI8XK6T5pp3cbkB4kjOWUlqXDtNlUfpG1VVR8fgxPqTk/EDfV3tMa5tvCjhQWDQDj+Mh4mEhv493WTRWkviqnlctsKLYzBIe30HIesiKTuRvKv8JPkr+PCj/qHr7RigD/AlxgH94I/H64gScXjw+qC9H7yJHhwE6e2YfCzGRGiu6KY0O4mMeckcOdE5MizRWktycTJxWFqPd4xKFCcR/wyw1pByxTyWLPRgQ0HaT/Qz6PSQERkxXQAAIABJREFUu76ArtZY5Scbf5Se6nbqhu9nR1IC2VmeMwcWl8aiq+JxNPfS0uUiKSeBwKoSEtzHeG9X75h2TlhRwrKV8ZjBEB11fYQcHnKuKaS7/VSVT/3+NCZCZ2c3kIQ/GVCyKCIiMieM2TpjcDDGw+wpRCKRSZUXORsmPYmm1/+Sj4ZXRTTetVx76xcoWHArpbsPcGT8ej6mBG/no7yw8yCDxmBtAkXrv821xWtYviCLmn1NQ8VMD3V7f0bd8Gnxi//0rJJFk+6n8bW/ZE/b0Ac7/Ddw/a2/S86iT1K06wiVFoypp+Kdf6WCkz2YK0mNq+Hw1p9QeabkJC4OD9AXOpsVhsPDPTcne2qihMOAIzr9YaieNIqXenEMdHPw11U09Q39gGS8ySy5pZCMZdlkHjhOYxgIDdDXD8mJboztwyZ58Pb00O7wDz3oDyeL9HXSG2JK0+jC1W20XJ5EVl4qGe5OmkeyDT+Z+S4Id9NUFf648snEPxPiUimc74FgFwdfqqa5fygeR1omy2/0Tyw/yfiNidC2r5aTA5fdi+adXbKY5qLr9cNUtQ3dMcafxrJb8khbHCDjw16aT3Z6OpIoXBqPCfdy7OUKanuG2tmZkcXKT/hOUfn07s9QKAgk4dGWviIiInNGzH0Wly5desoT9u/ff96CETGt73CgJQgnezj6d3C45l4K5ueQkgI0jT+jluMHDo70MBnTQ9WhD+grvo7U9OJYJ0wunradHGz9OJ5Iz2aONXyWnIJMkpKAzmlVP7lYzCDVv95D9dALDFHqXt8zlACfIil1FBax4fcmHp8wEjLdT6ITBitbRhIVANvfSX1tmIxSL0kZ0NgAEGSgG0xCPHF0EkmJx9XTQZtJJDPZja2P4k10QdfAmJ7VSYn00FAdJmtBIplFLporhvqqHFnJZPggXNVGyyAfJ6KTin8GpMThd8BgTetIoggQaW2hpS2LlPFTvWcoftPWzonWyMj9Eu1pp6kxj7T8OHyj7+ckLz4X2NpWTnQz0s7h5lYa2zJJzIxR9xTuTxEREZnbYiaLIrMlGuoaSfxOCg50AwHiYvY4dNE/PiPpOURVdQr+1i6MtdMaehgNjo3HmAjB0AAQh9s95WpnjO3qpr5x7AiAuKxU0hLHFXQbnMBA/8Sut1B/BPDgGL5eYyJ0d0WgKA4vEE2KY6Cjn17nIL7kOMDiTYRgzcCYeXaTYYyl42g7/QsCpJWk4D7aQghILknGQ4SGyu6x3+sk4p8RcS7cQP/A2HiMiTIYjDFncYbit8Ew4TH3s2UwGAEcOEfXH+fEAwz2h8e0szFhQgNafVdERORSETNZVO+hXMhM//u8v+X94RdzvEfDRoc2FjhPcdqONo68M7b7M3BtysRkkcmNFu3rHAC3G6/XiU1y0ntsgF5nCE9hHC5XhHgv9HaczdDa02htpbEtQHFmCln+Fmr6EwjkuWGglcYTE1cDmuPf9BnNqfhPcz+etziNAaITe71FRERk1miRcpHZFAwxCMT7Ysxjm2GTeUYPdYYI48GbGI8vMUR/R5RIxwChpHh8SfH4zSB9HafbM/LMjBmk4Xgv1vgIFHtwZKUS8EKwuoOOGJPgLvQcY07FHx3a7sI4xq2Qag3GeX4+0ufzAwMEp/kbg4iIiJw7ShZlTnF4knCP61qIi08EegkGZyem86qxkTbAl5mHfza7VIZXsHR7Jw428HidQGRo8ZKTOgfox018qhevd3jV044Qfb44/KnxxE1xJdTxghXttEcgsSiVzMIE3IRoOtaLGd/zNdn4B4cWYXHFuzGj2t1ag8frGCo/fjGlSQU+tAKoO35sPNY6cMfF6JubbPznW/cgA4A7JR7P6PvSEU9i8rnvW7Q2iawsP9BCu1ZCFRERmTOULMqcYjPKWZL+8aqOxruWhQV+iNbTcQ6Sj/Ovh1AIwE+c9yyKd+6nqhlM4WqWJZ/n0E6npZeuCLjzMsj0jZqj5k0mJ98FkT66WkaV7w3SFwZvXiK+7iB9EYZWSQ16SM33YHoH6D0XyU2og8YTEUhLozjPDV0dNLbEKDfZ+Lv66BoAk51GfsrH/xl0pGSQk2Wgv5+OM+8idGodQXqi4M5PJzBq/01nWgaZ6TF+FJhs/OdbfxftbRbSAyxelYQv3oHDG09WeQ7pzvPwo0ZKOYsKDDQfomLitqciIiIyS1wAbtfQr9k+n49AIHDWJ/t8p1pCXWRqws2dZH7iO9zcfJSeaCKpWYtIibN0H3qRiiBTnjBlU9dz5aKSkV9HnEkZACQW/g5rU05mNc1UvvcyDeGp95wY00dDYy3R7FJW3fh1sjp6hrcN6OXEh09wvGfcPDtTy64dRym/bT5X3baaPT/fRf9szLMc7KBqXzqpKxNZfOsCsur7CeEiKTsBrydK1+4mmkevPsoAfZ0QyPRjGjvpBSDIQKebrByLbQ5OfSXUUYyxtBztYLAwnXi/oWt3O32x2meS8RvbQ83ubjKuTKTk5oWkNvQRxENyjo94Z4SWDxvptNP4HoLtVB8NkLowaSiehn4GHW5SAtDbCoxfDXWS8dvUVOYv9I/cz46koR9YvIU5LEg5mcwFaXq/ic4p3M/GhKh9r5nADZmkrizhipVDx8MtDZxo9VGYP+kqT8naBJbedjMFjjBVb2+hea7PMxYREbmEuAA8wxtb+f1+/P7Znzsll7CB7Wx7q4bysmvIT06CUAN1B15i566DZ7Fp/WkkLGb+/CtwjqvDn7WWBcMP7tYep2P3yzRMcy++jn3/yvb4+1hROI+C4jgcxmBtG/0Hn+B4z8TybW/9gm1lf86Gy77A/V1h/uOlj+iOzuwDszGW7o+O8UFfFkULk0nJS8ZJlFBHFycON1FZ0TduVcxB+rqjODOc9HUOYI3BEKa3O4ory0V/58D0vq9RonVdtATTyYnrpeVY7F8MJhs/QP+RKj4MZVK8NIXU3GSSiTDQ1knV/nqqa0LTWnTIGEvHe8c4EM6lqCSB1Hw3oc5eGrbX0le6mLTpxp+QQO78FBzjYozPSiV35H7upfejJjqneD9HmxvZ9WIPWSWJ+L0w2NFDw7Fukq+OsW/GFFlHKgtu+RK3r0omVPscr2xrZo4t9SMiInJJM2VrrrCZgQySEhPo7x+gf+Dj1QXSUlMAaG5ujnmyz+fD7/dfkKunJiQkANDTE+Pp/QJwocc/nk2+g9tvu4WEqn/lya3vznY4M84mruKWLz7EmiwPweZ97H3zGV7ZWX3OEq4LmU0McPnt2fia6tixqWXC1ioyswLXLmdJQZDK5w9T3T2178JaB9nl93HD9eWUBrwMNm7lmR//jMNTrE9ERETODxdAU3MLTc0TJ8ScKVkUOdcmLFxyiTDdu3np+39Pzac+y4a1y1lT9hGbdlYTY9HPS05CaSp+oK2yU4niLLPWgy/RQHSQ/t7p1OQkv2wD81NaOLblSTb9+m2apzH8W0RERM6PmPssisjMM4N17Hn+MfZuyqQoGyWKgLU+sovjINJNU+WYSZNynlnrJG1ZDhmj9uR0JSeSkQKhqjbaIkzj64hwfNP3+EHDIdoH7HQqEhERkfNIyaLIHGMHmqisZFpz5i4Wjpw0Mv0QqW2nJYRyihnlIKEwldyMoUa3Nkq4L0jH4QYqPuwkMq05nVHaKg+eq0BFRETkPDFla6445Tro8+cVA1yQcxLP5EKf83ehxy8iIiIiInOb9lkUERERERGRCZQsioiIiIiIyARKFkVERERERGSCS3aBmwt9rt+FHr+IiIiIiMxt6lkUERERERGRCZQsioiIiIiIyARKFkVERERERGQCJYsiIiIiIiIygZJFERERERERmUDJooiIiIiIiExwVsmi0+k833GIiIiIiIjIHHLaZNFaSzQaZd68ecTFxc1UTCIiIiIiIjLLTpkspqelYozB4XDgdrspKSnB7/fPZGwiIiIiIiIyS2Imi2mpKaSmJGOtpaamhq6uLhwOB4WFhaSkpMx0jCIiIiIiIjLDJiSL6anJpKWmjCSK3d3d1NbW0tLSgjGG3NxcMjMzZyPWi4K1hruu9fDvt7q42trZDkdERERERCSmkWTRWktaajKpqakjiWJPT89IwaamJurq6rDWkpGRQX5+PsaYWQlaREREREREzi8XQHych/S0VLxeL9ZaamtrxySKJ3V0dDA4OEhBQQFJSUnExcXR09NDY2PjjAcuIiIiIiIi548pW3OFTU1JIj0tDWBk6OnpxMXFUVhYiMvlwhjD/v37ZyLW88pawx3XuvlMUpQf/SZKySonV6cYfFjqWqO8sC/Mzj4z7hxLXq6Lu0sdLEo0eIHWrig7j0V4ti5KeLjn1VrDgze72RB3+p7YQ3tDPHJ8aGiqTXXy2DonnuowX/koOqbcqpVuvlZoeG1bkCfaP/6MycRvE5z8w3VOAvWDfKvWwQNLHCz0GgaCliM1YZ44GqXdTq3n2M67n69/aQON/++/8It3Qli7krv+7j+zwu7gyb/4Xxw1BrP8Ib71wEI++OGf8Opxg7UZXPvVR7gu90OeemQ7uffexcqiTOJtNy0VO9n6wjMcaImMa38v2atvZv26NeQF0vA5++luqebI28+zZedx+kfFb7Pv4CvfuIWUPY/z/R0BPv3paynJSsIMNFH9wUu8+uI7tEWnXn4oHjeBstu5fv0airJT8TBAV/0h9m15hi27G4iM6omfyvWKiIiIiMwkBwwlPTDUc3imRBEgGAxy7NgxOjs7z290s8KwoczFWrflYEOUQ/2G/CwnX77azeXuj+cYWmsonO/h22ucrPZBdVOEd5uihP0Obl3j5k9KHThGzUmsqI+yozbCjtoINUGLtZYjw69P/rP3zE1/zuIfEefkocuc+HstHzZFGfAYLl/k5s+WOHBOdU5lfT2tGFIzcodep2ST7goS8mQTSB46lJSZids20FI//uREVt//IMu9LVTu201Vu4vA0o3c/eUHWeQb3f5O8jZ+jT+4/9MszBik5eguDhyqJpi8lPJ7/ow/vH0xrljx+6/kM5+7lsTOCg4fOEKXI5v56x/k/juWxL7esyxvrZOsG77Og5+7mYUZgzQceo/9h6oJB8q45vf/G5+7Lm/M/TDZ6xURERERmWmu0S8GBwfP+sRIJDKp8hcMAymdg/zZ3ij9xmCtYe1qF1/Kc3BboYP3KoYf4F2GexYY4voj/PPmMHvCwz18LsNDG9ysX+ikvCrKjggYY9m8J8xmhpLMz2xwkO+J8ptdg2w/1/M+zzb+YY4kw+HtQZ7uGorD6XPwzWtdLClxUn4gyttTyVf66mjtgfz0TIw9js3OJrX1MFWuUtKzgS7IyAhA17s09Q/F/HFAJSTWP8oPnzlIyBisSWDp577NPavWsP6qLA690TRUzr2cy6/MJFL/W375wyeoHBhu//gl3Pb1r1F29adZ8epBPhgYG5ojP4naH/8lb1aHhporcS2/880vsGjtrZRtOsB7vVMs7y3nhhtLcbdv48lH/52K/uF4vMu4/WsPc9nGO1ny9r+wLzSurc72ekVEREREZljMrTOWLl16yn8ufpZtx4cSLRhK9HZUWTqB/NRRxVIM81zQVBcdSRQBTNjyZp0Fl2Fh8sxGPuQs4x9muqK8OqqDONxr2dYKGEPulLfVPEFrCzjTs0gBErOyiWvZw9FmL2nZyVjrIyPdj22qZ+Js11r2bBlKnACM7WH/9g/owZCZV/xx3OHdPP+dr/Ld7/1iJFEEMAMHOFwZBEeA9ECM6619h7ergiOvbfcOdu3rBUcOGdnTKJ9fSp4HOj7aMpIoApj+fbz/UQt45lGQH6utzu56RURERERmmuvMRS49neN6o+iJsqMBMtrBYS1RY8AFXoB0J19YObZ4fNLQg7/fPRPRTnRW8Q+LBC29o14bY+kOWsAQP8X4jemhuakXVgZIByKBTDqaKml0tbM+kAuESc2Arj21I0nSx7roGj+6ufkQe/amkHqiC2Mt9uRcUJNA7qq1zM8LkOhzj/zykZjvBJw4nBNji/R2MTDuM3t6uoEAXt80ysfH4wEouYlbf2fsF+DJ9gLxMeufzPWKiIiIiMykmMnixbBgzblkQlGefG94kZmTD+7GYICkVCcbYvTYWWvHDq+cRTHjP8+amhogPkB6oo9oIIHW92tpdDfiX5FLnDtIWqKltbH2rOoy3e/z+k/fH35xcrhvKTd8+WHWFXhxxLimGd/Ccvh+8BddweqiiW9bGz7r+yHW9YqIiIiIzDT1LE6VtVig8kCIbx89VWZyPh/0hz5/rupqbCDIclIz8yDQSnP9IEFPI703ZJOVPUCa6eBwfR9TbaOMDfexriCejo9+zlPP7qChKzjSAzf/3se47/JzeDFnY/h+qHvlv/H466eaZ6jET0REREQuHDHnLMpZCEM/kOA5T/UPwgDgi2fMqp7WWlLjh5KOgbm8vlBjI20kkZpbRHpCA80NQEMDbUmZZOZmkWQbaK6bWtXWGrLz8jA0sHfTZuq7Qx8PTbUO4uJOPX7W6U8ifly3Y0JCItBLf+80yg8MEAK8/qSpXZSIiIiIyByjZHGqOi0VYUjPdVI2eksNY7h9nYeffMrFxvhYfX9ResMAhoS409TfazkaApPu4JOJHx92J7m4LgMIWg7GSG7mjLZ6WkKG5EVLSWtvoGkQ6K2ntT+TeUsycXY20Bg8Yy0xGWPp7ekG0sgvDWBGJXOego2UlcaYrDgsml/O2sKPM3yTuJbVy/wQraelYRrla49QG4KUFRtY6Bu1n6Ijh/Vf+T7f+rs/4crkudwXLCIiIiIylgvA7Roajerz+QgEYiwheQo+X8wVOy4NgxGeOuxkyVIHD1/v4UCbpTMMgXQH873QWBVl+/htIQBjDAeaLdE0w11Xe1jYaTm59fpHhwbZ1ndyVcwoLxyMsnqlg3uu8bCqJUobDuYHDOkO2H0wwn47l4c1nqC1GRbPW4ij4gOaR46lc+3CMLbyt8PHpqZ651Yaym+j5M6/4surDnKiI4Q7qYCiwiDVx7thUezzBis7KXzoO/xh5VHaI4nklC4iw2dp3/4iH/Qy4fs66/L97/Kb16+j+NNX8jvfKqSqoobuSDypRYsoSHXTtnMTH3VMrF9EREREZK5yAXg8Q11cfr8fv3/K+yVcUowxVFeE+Jt+F3eXOliU4SAeS3uv5Y2jEZ6rjNBzisVJqo+Gedzj4vZcw+o8g9MYrLV0VcK2vo/LNVYN8p1BF/fMd7Ak4KAUaO2O8sLhQZ5tZE4vfmJMC83NQTz58bQ1nSBiDIYumpv7iSv20950gsFpxB+peZEnf9LP9TevZ172MpbkB+muP8iOn/7y/2fvzuOrqu/8j7++5yY3+0b2jWyENYCABJBGwCpuVUGtirY6o21namfa2s3pr+20M52x7XTRzq8/O7VOZ2q1jnUqrlTFDVBEVBDZA4QsQMgCIXtyc+/9/v5IyHYTICSQAO/n49FHvOd8z/d87vfe+rhvv+ecLwemf3ewrIhpWc8zf6zgmms+wcTkaEzrYfate4mXX9yFb4B6TrW9MX6q3/gF/1l3PUuK5jB+0hwybQuNtcVsfOtl3n63uHs5ExERERGRc4GZNWeuTUpMIDoqktbWNlrbeh77Py4uFoCamoHngMLDw4mIiNDTU2XMsyk38KWvX0vMx7/lR394f8Tbi4iIiIicb4IAqmtqqa6pDdh5srAocq4xQ5zdG2p7EREREZHzhR5wIyIiIiIiIgEUFkVERERERCSAmTVn7qDP85+Qmw2gexJFREREREQuMJpZFBERERERkQAKiyIiIiIiIhJAYVFEREREREQCBBnrO2mjkJCQs1CKiIiIiIiIjBWaWRQREREREZEACosiIiIiIiISIGgkOvnJT37S/c/333//SHQpIiIiIiIio0gziyIiIiIiIhJAYVFEREREREQCKCyKiIiIiIhIAIVFERERERERCaCwKCIiIiIiIgEUFkVERERERCSAwqKIiIiIiIgEUFgUERERERGRAAqLIiIiIiIiEkBhUURERERERAIoLIqIiIiIiEgAhUUREREREREJoLAoIiIiIiIiARQWRUREREREJIDCooiIiIiIiARQWBQREREREZEACosiIiIiIiISQGFRREREREREAigsioiIiIiISACFRREREREREQmgsCgiIiIiIiIBFBZFREREREQkgMKiiIiIiIiIBFBYFBERERERkQAKiyIiIiIiIhJAYVFEREREREQCBI1EJ/fff/9IdCMiIiIiIiJjhGYWRUREREREJIDCooiIiIiIiAQIssZ10kbt7e1noRQREREREREZKzSzKCIiIiIiIgEUFkVERERERCSAwqKIiIiIiIgEUFgUERERERGRAAqLIiIiIiIiEkBhUURERERERAIoLIqIiIiIiEgAhUUREREREREJEDTaBcj5z0ZZblzhJ88aVj1p2NFkRrskERERERE5Cc0syhkXVmBZNMGQkQ+Lpo92NSIiIiIicipGdGbRWj/ps+Hy+Za8FIh0Q2sDlBc7vP4q7Gs8+zNK1lquus/PVamGJ75l+MBoVmu4rLXkLfZz/XxIjYUQV+eY2mLDN38L3n5j3FoCu+st2Rg+3hvYX1SRnx9e1/8csOZhw7Nl+rxEREREREbDiIVFay0zPm25cy6YVigtgWIPRCdAXqGfSZMNT/0aNh7Vj/9zXdgMyz3XQHCdYdsm8NiuHVVgB2hvqhx+/a+D99dRCRs29ryOzrFMSdD3RERERERkNI1YWIyca7ljLrTtMTzyuKGirWu2yVriC/x88U7LjTfA9t9Bs2b3zmkZeZZwYMMzhqeK+32Wp/HRtu11+J9eM45Tb/ExJWFYJYqIiIiIyDCNSFi01rJggSXEY3j+qZ6gCGCM4cg2h1Xb/Nw5FQrC4L22nuOy5lmuXGDJToRQA/XVhm3rDas2QluvUGmz/PzTvZbgDw3f+VPfWy2n3uLj83NM92WL1lpW/MDP/Ijjx3f+/cxPLZ/pNfe19wXDr9b1Ooe1pFxkuabIkpcMIRiOVcHmtYZXtoDP9G279Ct+rkmDx37kkPlpP3OzINRCdQm8+qLDltrTD8U2xc+377PEb3P45/csN18F+ckWVxvs22xYucpQ4x9ePUMZ/97c7s4xbW8/Qf1dl/9enda3j/5jPhxD+bxERERERGRoRmZm0WXJSgf/btjQQMDskjGGikNAASTEAZWdP/Szr/Jz72UQ3Ab7iqGBzlmropstObGGh149/R/8pVsN7tDOf06ZaEkNM+zfAsd6tams6vlnay1pl1m+epUlqMWwd4+l0UJ6ruWKOyy5sQ4Pr7H4A+oxLFjhJ9kNe3YYIlItE6bAXRmW//oFbG0ZZmAJt3z2dggphR11how8y5QiS1KQ4ccrbcD9gadaz1DG31rLtCssM2I7zxCd1fl34iLLbS29LjytMjy9tuczq9hm2HCgc1dQsuXirJELb6f/eYmIiIiIyKkYmbAYDhEGGo6a7h/nYdl+bltmmZQE3jrDmu0GDxDsPn6M5epF4G4xPPmQYWN953Emys/dX7MULLFcvM50z0IOhTGGDc8YNnB8hsuSGgbrnzjBA27CLJ+6zBJcZ3jkl4ZdrZ2zlzbMz+1fsRRe4WfmBofNnv4ns0RVGn70rKHNGKyxzLrdz10zLEvnG7a+MfT6e3NlwP5HDH+p6Dc+8/zMW+3wTvNp1jPE8c8ssMxP6ztTm1YAab1ObYvhf9d2tTCGHa8ZdnTtiyryc3HW8Maij9P9vERERERE5JSMzNIZDriA9q4f5taxXLPCMg3Df/3E4V8eMYTnW9y9j8mEDBc076A7qADYRof1OwAXZI8fkepOTQaMd8ORrbCrtddltK0O67cCbsjNGPjQD9eZ7ks2jTVsXm9oAFLTB3rcy9CYg/BWec/r7vFxICV5GPUMYfyNMbzykIuvfsvhq99yeOQDi7Xw1v8z3du++i2H+x41A8x0niHD+LxEREREROTkRnTpjG5xltxYOLQRdncFkbe3Ghb3noZyW0KAIwMs0N7Y1NXEHbDrzAm1hALkwG03+/vscqd0/g0PH/jQhvp+G2ph03YYd9BgrMUOI0B5mw2t/Y4/Pj4Rw6lnrI3/UA3j8xIRERERkZM7M2ExEsKBI56eIOLp6N/IMPBCC31bnD2d9USNh/kBM5qd9+2daj2m0eG5x3p1O8oGrmesjf9QjdznJSIiIiIigc5MWORUgsbJL9Hs3+LER9hTOuvJzlb+iuEXr18IMWPo4z+2XGifl4iIiIjI2TUy9yz25wMv4Hb3xI3w0H7Rw2NoByIjAyNJVGTn3z5LM7RBGxAWCUG25xhrLTFd7dtO42E4Pf0b2oDIiGH0cQYERVjCbN8xOj4+zS3D6Hio4z/WjNHPS0RERETkfHFmwmId1ANp02FSjCV0nGXJRf3alBvKfRAxFQpjegKLifJzyVTAC6UVvdpXG8pbwORZFqf0bA5OtcyfADQZ9lUPXM7xEBkRdYKaD0CpB+IKLNPCe4VRx3LFvT5+8kM/i2LO/lybPx0WZ/a87h4fP1QdHkbHQx3/s6ixufMS09jYEzQao5+XiIiIiMj5YmQuQ/V2ziSGm65LQZsM72635BXAF79jsdaydb2hIaHXMa3w8luQ90nLbV+zzN3XGTAz8yApFCpWO3zYSveVpcYaXn3FMG255dq/8zNlD9RjyJ5oiXPB9pcNe2zg5YjGGHbvBV+O5cq/hZxDluOPQ9nxiuGDI13HtBpeeh3yr7bc/U3L3hJDgxfisyAnDmo2Gj44xlm/kc9TBnmf8/OV/YYj/s51EJPD4Mi7hg3Nw6hniOM/VDbVz6cX9nzBgpI7vxuJMyy3JfeEuM0vGna39T3JwW2W2iKYsdzyuSl+mrw9+9c/bSg3Zsx+XiIiIiIi54uRCYvN0OiDjHiDy1p8xvD+Ew6NhZZJidBS5vD2AVgabClv7DzEGEPZKw7HmOMzAAAgAElEQVS/qrdctcCSMwlygMZqWLfeYdXGnsXdj6t91/DvLXDtIkv+JMjGUldpePUNeHU7gwaDyjcd/ifScvl0y/SZ4DIGa6HhHfjgSE89lW/Cg3VwTZElb6Il10J9rWHdGofVG6B5FBZ4d5rhsScNn74apiVZnFbY+bZh5UvDW6bidMZ/SOJh3lxLcHcfnX9jsmB+13qL1kLVq7C73+XDvlKH3/7RsvwKS95MCHP1tN/7NJQzdj8vEREREZHzhZk1Z+6g1+pNyM0GYMeOHYM1ATrvGyz6gp+bMg1P/NjwQYt+pPdmrWXaFZYZJ7qsEuCY4YXVnSHHpvj59n2W+K0O33xc4ykiIiIiImfXiMwsGmP4YJ3h8r+2LLsLjv4BSgZYv+9ClllgmZ924jGxhyyvrTY0996oYRQRERERkVEwYktntO40PPaa5Z7LLX93v6V8v6GmAXxt8PoLhpoL+JJAYwyvPOTilVNqfKarERERERERObkRexpqUlIMt81dxp9eiuGdEkNEuuWiuZZ5RXlMmZDc3S4xMZrvfncZiYnR3dsmTEjmO985tW3/5//cwIR+/X3nO8vGzLbhvLf+24IB16QFI9bfuTB+Z2KbiIiIiIgMnSs1Lf0Hg+0cF9d5k11NTc0JOzHGcMcdCzl0qJ75F03njb/U8/xzrWTnfJK9+0O46NLJVFYeo66uhTvuWEhbWweTJqWyaVMpEyYkc8st89m7t4pZs7JOum39+j1cddXMPv0dOlRHUdHkMbFtOO+tz7aUFKZOuIKPdzYP/dhzePzOxLbt2w+M7P9rREREREQuACMSFouKJpGYGM0f/vA2lZV13HLLfFJTYwkNDR5w26OPvsns2dnk5SVTVDSZP/1pA2+/XcycOTkn3bZpUymVlcdOeo7R2jac93Y2to318TsT20REREREZOhG5GmoIiIiIiIicn4ZsXsWRURERERE5PyhsCgiIiIiIiIBFBZFREREREQkgMKiiIiIiIiIBFBYFBERERERkQAKiyIiIiIiIhJAYVFEREREREQCKCyKiIiIiIhIAIVFERERERERCaCwKCIiIiIiIgGCRruA84GNsty4wk+eNax60rCjyYx2SSIiIiIiIsOimcUREFZgWTTBkJEPi6aPdjUiIiIiIiLDN6Izi9b6SZ8Nl8+35KVApBtaG6C82OH1V2Ff47kx42atJW+xn+vnQ2oshLg667bFhm/+Frym7/toLYHd9ZZsDB/vDewvqsjPD6/rfw5Y87Dh2bJzY0xEREREROTCMmJh0VrLjE9b7pwLphVKS6DYA9EJkFfoZ9Jkw1O/ho1Hx344CpthuecaCK4zbNsEHtu1owrsAO1NlcOv/3Xw/joqYcPGntfROZYpCWN/HERERERE5MI1YmExcq7ljrnQtsfwyOOGirau2ThriS/w88U7LTfeANt/B81mbAeljDxLOLDhGcNTxf1qPY3S2/Y6/E+vGcept/iYkjCsEkVERERERM6oEQmL1loWLLCEeAzPP9UTFAGMMRzZ5rBqm587p0JBGLzXBjbFz7fvs8Rvc/jn9yw3XwX5yRZXG+zbbFi5ylDjN33OsfQrfq5Jg8d+5JD5aT9zsyDUQnUJvPqiw5ZaE1BX1jzLlQss2YkQaqC+2rBtvWHVRmgbJLS63QCG9vYTv+er7vNzdVrfPva+YPjVupEJw9ZaUi6yXFNkyUuGEAzHqmDzWsMrW8A3xkO3iIiIiIicu0ZmZtFlyUoH/27Y0EDA7JsxhopDQAEkxAGVvXaGWz57O4SUwo46Q0aeZUqRJSnI8OOVNuD+QDAsWOEn2Q17dhgiUi0TpsBdGZb/+gVsbemZ0cy+ys+9l0FwG+wrhgY6Zw2LbrbkxBoeerUzcFlrmXaFZUZs5xmiszr/Tlxkua2l14WnVYan1/aEtIpthg0HOncFJVsuzhq58GatJe0yy1evsgS1GPbusTRaSM+1XHGHJTfW4eE1Fr8Co4iIiIiInAEjExbDIcJAw1HTHV7Csv3ctswyKQm8dYY12w0eINjd91BXBux/xPCXis7jTJSfu79mKZjnZ95qh3ea+53LWKIqDT961tBmDNZYZt3u564ZlqXzDVvfOF6T5epF4G4xPPmQYWN9v/6XWC5eZ3ivrbN5ZoFlfvcsYefftAJI63VqWwz/u7arhTHseM2wo2tfVJGfi7OGM4j9hFk+dZkluM7wyC8Nu1o7H1xrw/zc/hVL4RV+Zm5w2OwZwXOKiIiIiIh0GZmw6IALaO8KLtaxXLPCMq3V8NufGMqAK//Kj3uAG/7MQXirnO7ZSNvosH6Hj4KLISUZKAk83YfrTPclpMYaNq83LJ9hSU23PR1lQoYLmnfQHRT79589Ht4r7gx+rzzk4pWuNlNv8fH5OWbgp5WerYm8DBjvhiMbYFdrr8t6Wx3Wb/VReCnkZsDmAcZHRERERERkuEZ06YxucZbcWDi0EXZ3BbW3txoWpwU29TYbWvtdStnY1Pk3Inzg7hvq+22ohU3bYdxBg7EWawy4LSHAkabAdHe8f7c7YNfYEWoJBciB227299nlTun8Gz7I+IiIiIiIiAzXmQmLkRAOHPH0BDVPxxk5EwCm0eG5x46/oNc/DLTQRa/jzlxJI6Cz/qjxMH984D5r7RivX0REREREzmVnJiwyFoLYiYPiqbUYTZ3Vlb9i+MXroz+aIiIiIiJyYXHOSK8+8AJud08cCw8dOJoFRVjCbN99UZGdf5tbhlGDx9AOREYGnvd4/ydaGmPUtRnagMiI0S5EREREREQuRGcmLNZBPZA2HSbFWELHWZZcNHBTfzoszux5baL8XDIV8EPV4WHUUG4o90HEVCiM6QmM3f17obRiGP0PQ2Nz5yWmsbEnaHQASj0QV2CZFt5Tv3UsV9zr4yc/9LMoZmzPjYqIiIiIyLlrZC5D9XbOJIabrqeRNhne3W7JK4AvfsdirWXrekNDQuChnjLI+5yfr+w3HPF3roOYHAZH3jVsaOb0r2dthZffgrxPWm77mmXuvs4Am5kHSaFQsdrhw9bT79+m+vn0wp4BDErufO+JMyy3JfeEuM0vGna39T3JwW2W2iKYsdzyuSl+mrw9+9c/bSg3BloNL70O+Vdb7v6mZW+JocEL8VmQEwc1Gw0fHDv9+kVERERERE5kZMJiMzT6ICPe4LIWnzG8/4RDY6FlUiK0lDm8fQCWBlvKG/se6jTDY08aPn01TEuyOK2w823DypcM3mEsOG+MoewVh1/VW65aYMmZBDlAYzWsW++waiP4hrOgfTzMm2sJNn3XZozJgvld6y1aC1Wvwu62vof6Sh1++0fL8isseTMhzNXTfu/TUN5Vf+Wb8GAdXFNkyZtoybVQX2tYt8Zh9QZoHk79IiIiIiIiJ2BmzZk76LWME3KzAdixY8dgTQCw1lL0BT83ZRqe+LHhg5aThxib4ufb91nitzp883GFHhERERERkbFkRO5ZNMbwwTpDfYhl2V2W3AEeKjP4wSNRgYiIiIiIiIykEVs6o3Wn4bHXLPdcbvm7+y3l+w01DeBrg9dfMNTokkkREREREZFzxoiFRWMM+151+HkpLPmEZXKGJW0iBLcaPnwBakbqRCIiIiIiInLGjcg9iyIiIiIiInJ+OTPrLIqIiIiIiMg5TWFRREREREREAigsioiIiIiISACFRREREREREQmgsCgiIiIiIiIBFBZFREREREQkgMKiiIiIiIiIBFBYFBERERERkQAKiyIiIiIiIhJAYVFEREREREQCKCyKiIiIiIhIAIXF85wNiid73jJuuGIGLmtHu5xRY62L/CvuZsm8ycQEXbjjICIiIiJyqoJGuwA5cyJyr+LaWz7F5IQQ/Dsf48XRLmhUGSLGz6NoygIKl3zE2396jHdKGke7KBERERGRMcuVmpb+g8F2jouLBaCmpuasFSQjI3zSCu685xrGB1Wy+cXf8vSqD2n1m9Eua9QY46dy2wbKG0PImFpIwdwZhFV8wL4jntEuTURERERkTDKz5sy1MVGRRESE09HhpcPb0b0zLDQUgJaWlgEPDg4OJjg4mLKyshOeZP4cN3+bannhLQ9/bhp+YLHWMjkviFuzXWSEQoirs09b4+Xz73rpMEM/h03L5sUf5JC+aTuz/6N62DWOJhu5gBXf+mvyzT5ee/hnvFvpG+2SxhRX6pV89t6byPRv4Zl/+xXbmy/cEC0iIiIiMpgggIiIcMLDwwdtFBERcdYKOhXhqcF8eaqDu9Wy+YCl7fiORot/NAsbA6w15Fy5nPwwD/tXPnJKQdHaPK7+3v3M5S3++4dPUHEaYftc4qt8hWdeLuBLy2byyaUT2fFMMfY8f88iIiIiIkMVBNDR0Tmb2NzcPOgs4kDCw8NHJUhmxRsisKzZ4uG/avv9yL/Qf/Q7UyiYHgst61n/7lHgAh+PQdS/+wo7lk5ixowFZD1bTKmeeSMiIiIi0kdnWPR6gc7LTYdyf2JiYmKfsGiNYcFkF9enOyQHQ0OTjzd2+KkeZLrPWkt6WhA35TlMijKEAUca/Gws8fHsIT/eQYJfiAvA4DkjV1da0mbm8v0bU7goIYjWY81s3lDCj186SlW/e/6sdTH90ly+tDiBGSkhROCl5nA9b76xn1++3UhzV/3WGj79lcX8IPsgP/izi7tuSSTuaBU/eLCMqFtm8M2Zbo7tKefbj5Sxpc306t8hf142f395EnNSQwnHS9XBOl5+vYSHN7YMfLltUj6ZEeDdupNSP6eYFVvxtAO2hdYTjYwNI2X2lRQtnEN64jjCXa001paz593nWbtxP622d+0JXPrVB1ic9hF/fmA9abcuZ0ZWEqG2kdp9G1n3wkp21vb9AK2JY+LSFSwunExiBLRU72HLqsepLnyAG6dXs/an/8ia6l7ncOLJv2wZn5gzkYSYWMKCvLQ21nJ41zrWvLSaipYTvHnfTkpKvMwoyCM7CUqrBm8aOulm7rhtCYmmkg+e/AWv7T71/6AiIiIiInKuGrGnoVprmTYtmL/NMdgOy65qPw2O4bI5LvYdG6i9YfyEYL47xeD2WHZW+2jAMD7e4VNzHPLDOvjJPj9+Y7DWMCvfxeyuK2Xj4jtDwJS8YO7u/XySRj+/L/HhG87sYlQqD9wdScieOtZUupk+dRxXXDeT/PBNLPuf+u4Aa61h5vJZ/O6aKEJaW/hgexU11s3UyQncflccF43bxO3PN/YNvK5Yrp/TzK6SdhZNS+NrXwyhpq2RTbXxLC7I5dtLqrntL23d/U++eiZ/uDGWkOZm3t9xmCPWzeRJiXz+8/HMiv2Qe15tCnyvMTFEAC0NdfgHGQdrs/nk360gtnQDH769ltJjR2losFjfUY4BrrjJzFq4iBlZ1fzlV89QaQzWukhfeh+fXZqNq/kAZXs30UwEiblTKbx5KnkpD/LIs7sGCPhRzL79HhLcxZRuryQsdSLZU5dyU+Y4nv7Zb9jd0jOeKVd+mVsuT8dpr6Fs536aXEnMvP0eqg8P9B4c0q/+MrcuTsVbt4+SbTto9boIS5xIXuEt3J4azO9+uYqaQcbAGB/19Y1ANBExwAnC4vjZRaRHuYEsZs/O57XdWwZvLCIiIiJynhi5pTPcQVyXZcDj57dvdbDe0/kj3R3j4lsLBjqz4eZ8Q0irj5+v8bLV2xUaggyfWxRM0UQXhWV+NnRNPuWkOSyK6fvDPzPVRWav17bG8ocSGM6EY1CWm80/f49f7u/sJSgpg0e/l8/FS8Zz1f9u5cXjnUck8XdLowhtruF7/7ydlXWd1zE6MUn88gfTWHJ1Dte/9jHP9J6qC/Pw8n9u44mmcL78T/P5m7BGvvTjEkqi0nn8F5OYlh2Fsa2d98+FJ/KVa2MJO3KIe3+4i3XHQ1V4HP/6vYtYdn02V67bxqo2+goJwQ20ePrv6CVlOhOzckjKyWXaJ66i5O0n+fBwLUdtM/nXfZ2ln5hMTJDB+g+Rn/IMlVVAcAEXz0vCV/kWTz38BKVdM6A2dArXfe0+Zl1yDdNf2cXm/qd1coiqfJCHV+7CYwzWRDL1ju9z88w5FC1IZvfrXQ8Tcs2m6NJ0nI69rH7o52zomnV0Z9/EXV/IH+BNZDB1eipOx1ZW/eLf2Xq8HhtK3tK/pjBjHEnjoKZu8GHweNqBaNwhg7cBKN34BqXZi0niEB9sLD5xYxERERGR88SAYXHq1KmDHrBjx46Bd0RBugNNh33dQRGg/ZiXjQ0uJozr1z7WkBsE1WX+7qAIYLyWNw9ZivIME2Ngw1EwxrJyrYeVXW1mzgjmvvGG1e+080TdyN6z6JQf5rESb3c/HVUHeXb3BC6eEUFuMnCoq2F2DFOD4Nh7h7qDIoC/vpr//WgiSxbGMDMHnuk9XLaDY00AHo42ArRTA9Do5agFd7ALF+AFyIpheggcWHuwOygCmJY6/rSphWVXxDJ7PKw6jexiql7g0R8XM23OXCbmTyCl8B6uD3JwzF+xzO+hsXIbm3d/zPb311NypPPcxruF5//lq8d76OmrbSfFpe3MmpVIfCJQ0f9sB9i6tjMoAhjbxI71m2mauZik9GygKywmZpDoBv/2dWys6Rn/9v2r2XboSlKy+vfr4DiAvwNvr/86YEwbJat/TUm/OofDs+85HvvRcyPSl4iIiIjIuWIEZxYNEUBNv2XrjDE0tA985jCAeBd3z+i7KzS680d+RPCIVXfKPA0e6noFTmMsx5q8gIvwsF4NQ1yEAwcbA9fpq2nsAEIJO8mM1QmFBREBkJ/JP9/Z96bP8IxgwEX0MJ4t5D26my2rd7NlNYTl3sCKFZcQxVE2Pf7vrCsb+M5FayJJmzmfCemJRIUH43Rtj8pwAS4c10BHNdBQ329TzW62bosl7mADxtrOmdSoSMKAlsa+l88a00B9w0A3vVawa1sNhUWzuf7r32DSrn1UVR2iqmI35QeP4bUjExRFRERERC5UA4bFQWcPR5IxGCA6zsWiuMDd1tqx/SBP52QNDOakbU7ef1xOKjfmDLDf+gfu3/qxcMozrO6cG/nM564i7P0HWRX8OW77wtdwfvNT1pT3DcE2KI/L7v0yCzPDcAbo2w7haaKm8UNe+/2HXS+O99X5fRioGzPAVmN8lL34IE+1LGPhxQVMWziJGcdng+v3sOm5/+bVLVUnXhLDGMA/pNpFRERERC4UIzezOFTWYoHSnR6+v3ewX+tjOC2edEFHix3Ooo9dx+54dj23vDTY/YcDjE+7hw4gNPzk0442spAb7rqKFHaz6vUdFAe/TMXsT3PpX/01VT//D3b1Wqw+YdEKFmaGcuzjx/nzsxs43NDeHcQm3PoQKy4e4vvrz+fDCwS7+n4lrXVwuQZO3cZfy57XHqV4tSE4Opmk1PFkTJxH4cLpFN5+D/UHH2DDkcFPGR4eAbTRfoLbO0VERERELlR9foWbId7v16d9h6UFiHT3bWOtJXqgyzG90DpA+3NGu48WIC4q8A0kRgUDPloHuvz2VLV6aQZiB+j/hKqqOAqEJ6UTcYIpM2td5F19M5MjOjjw2pNsqgdqX2fVa6V4o+awdOlknK7jrTWkpKdjOMy2V9dQ2ejpDorWOoSEjMD1wrW1NABhqeOJ7l23k0Nq6om/l8ZYvI2HOVS8kfde+BV/frsKXNlk5w5el7XRJCdHALXUneBJqCIiIiIiFyoHwOm62Sw2NhaXa8Abz/owxpCenk5sbGzPxgbLQT9Epri4xN3zY98dE8QlMQN0Um/Z54X4NBezgnvaW2O4fqGbR64OYmnoGL4+cH8D270Qe1Eay+N6wowTk8TNFwVDxzE27x9G/2X1bGmHtFnpXBbZa3xc4fzt/UW8/38v4s64AcanfgdlNWDGz2baQOPexRgf+557iOdXPcazbx7EGoMxfqpef5TnX3iUJ17Y1X3voDGW5qZGYBwZeYmYXmHOnbmUWXkn/86cVMM2Sg75IeMKll89i8TIUNzR2cy8+SYmBgc+39aGz+eGr/8Tf3PnZcSY3uMQTERkCOChreUEz8WNLWRSpoGa3exrOHFp7rzrufMfHuQb3/4mi/PCTtxYREREROQ8EQTg83rx+/0EBQWRlZVFWVkZPt/AP7RdLheZmZmEh4djraWtresaPo+P58tdTM52+PwSN0W1ness5scZDtcD/Z+G2uHjz8Uupkx1+PISNzuPWuq9kBjvMCEMqsr8rG9l7F6J2lLFr17JYM61ifzzDwq5flc91YQwbfI4ssN8bH++lBdbOP36W2r49xePMfemFB78YRTvFzdS2+EiY8I4LhrnUPZ2BS8cDezfmANs2rCXwusmsOC62Wx9fBOtg6016DnEljcP9enE2Gq2r60O6Lh84zoOF15HzrJ/5N6Zuzh4zENwdCZZ49sp398Ik07zfXbXXck7z73K5M9dRdblX+KLl3dubz/wIu+X5bJwWr8Dmney/+gtzJh+K5//+kxKDhzB43cTnphLTnYs/iNvs2WPP+B9AFgbydTrriTT8VL27tpB12I8Lmfe5WQnhAETKSycyFv7tM6iiIiIiJz/ggDqG5toamklLTWZ0NBQsrOzKS0tDQiMbreb8ePH43a78Xq9lJeXd4dFYwzbt3v5D5+L69MNE5NdNDX7WfeRlwOZwfRfjMMYQ/k+D//UGsRNeQ6TEhxCsdQ1W17f6+O5Uh9Nw1wG40wyxvLxs5v5q7pcvrQ4kYsKUpiFj9rDNfzxzVJ+ua5xgAXqh9b/7pe3cEddNn9/eRJzpiYTbjuorq7jjy+X8cia+j5Pbe3t6Nt/5J1Z32bRRXdze4OXP730MY3+4Y2lr+JFnnyklSVXFpGbMo0pGe00Vu5iw++f4sD07w43KwLgLXmGR3+2k4tmF5AYBa1VO/lo41Yybr86oK0x9Wx54mfYpcuZNz2X/FmTceOltekoVVteYP1fVrHfM0BQdOLIv/aLXD8zBs+B53j5nRpOlujLPlzHofzFJJhKNm3aMwLvVERERERk7DOz5sztvobP5XKRlppMiNtNe3t7n8AYHh5ORkYGQUFBtLW1UV5ejtfrHbXC5cRs1Eyu/ZvPMSfZTXvNdra9uZKXN5b3WZbiXFFw129YXlDJmn/7PmtrTq9+ax1SCldw2ZJC8hLD6Khax8rfPEZx47k3HiIiIiIiZ0OfB9z4fD4OVVbR7vEQEhJCdnY2LpeLmJgYsrKyCAoKoqmpidLSUgXFMc40buGlX/6IZ9ftpCW2gDmz8k6+2scYZG0qCYkG/EeoOzqcnlxkzFrEhNhm9q/9Hb97SEFRRERERORE+swsHtd7htHn83U/9Obo0aMcPnz4rBcpw2NCk8hKgfL9VWN6ZtHaCPIvv4nJ3fe3BhGWMpn88bG0bnmEX//hfdpOs35rHeJzJmIP76aubQw/OElEREREZIwYcJ3F4zOMOVmZOE7nfNThw4c5enRYUzsySmxbNaWldC1CP5aFkVrwCWZndi3L4ffS3lhNxfrnefUvpx8UAYzxc7R010gVKiIiIiJy3htwZvG4CbnZAJSVldHc3HzWihIREREREZHRdUq3sSkoioiIiIiIXFjOxWeeiIiIiIiIyBmmsCgiIiIiIiIBFBZFREREREQkgMKiiIiIiIiIBFBYFBERERERkQAKiyIiIiIiIhJAYVFEREREREQCKCyKiIiIiIhIAIVFERERERERCaCwKCIiIiIiIgEUFkVERERERCRA0GgXINKfdTt8draLifh5ZpOXjzxmtEsSEREREbngaGZRxpzwVBdXJDpkJQaxNFVfURERERGR0aCZxQFYa5mcF8St2S4yQiHE1TmzZWu8fP5dLx1GM11nUssRH9tbYQKWD2v9gMZbRERERORsU1gcQHhqMF+e6uButWw+YGk7vqPR4h/Nwi4QpsnPv712fKQVFEVERERERoPC4gCy4g0RWNZs8fBftf3CimYVRURERETkAqCwOIAQF4DB4ztxO2sNueNdLM8x5EUYwrAca4bNJV6ervDT1itYWmu44dJgboz28x9v+MmZ6eKSWEM4lkNH/Lyw3cvGluEFUWvDSJl9JUUL55CeOI5wVyuNteXsefd51m7cT6vtXU8Cl371ARanfcSfH1hP2q3LmZGVRKhtpHbfRta9sJKdtX0HwJo4Ji5dweLCySRGQEv1Hrasepzqwge4cXo1a3/6j6ypPr33YK3hxkXBLIvpe/zubR4e2G8D20e6+MliF4mVHdx/wOGuKQ4Twwxt7ZY9FV6e2Ounzp5f42mdePIvW8Yn5kwkISaWsCAvrY21HN61jjUvraZikO9P6KSbueO2JSSaSj548he8trtlWOMiIiIiIhcGV2pa+g8G2zkuLhaAmpqas1bQaLDWMCs/iGsyHGYlO0yLd0h2Q4jbITuhc9usZIdZ4fBxnR9rDNZa8iYH8e2pDmku2FfrZ38zRMc4TE93mI5l3RGL7Q6MhslZLqaEQESsiylBlt1HLQ0uh7xxDoWpDgcqfBzyn27YcpG+9BvctWwuicHHqNxXzKEjrYSkTmXSRZ9gUtheNu+qxd9dTzhZ8z9JdlQzYZmLyQ6toKz0EM1BiaTnTGHqzBSq3v+AIx2me4xSrvwWn718IlHUUbF7NzWecUwqmkmUZxzj4popW/8mZc2nG9AMoW6Dp8VSVm855IfMMMORah/rjg3Q3O1wRbZDRIchO8tFWIOlpMkSGe0wMcnFrCDLm9W9x39oxtp4WuuQfu39fObyyYS3H6K0eCcVBw7T7CSTPe1ipk/wUbxhDy0DvN/cpX/DJdmhuNyxJLKPd7ZVndaYiIiIiMiFRTOLXXLSHBb1m9XKTHWR2eu1rbH8oQR8AMEubspzcHv8/OfaDta1dR7ruB3+fnEQs/JdLNzvZ62334kMxNZ38A/b/LQag7WG+bOD+GK6w3XjHT7YFziLdkqCC7h4XhK+yrd46uEnKO2qx4ZO4bqv3cesS65h+iu72NzW7zgnh/UhpKcAABbGSURBVKjKB3l45S48xmBNJFPv+D43z5xD0YJkdr9e3dnONZuiS9NxOvay+qGfs6FrlsydfRN3fSH/9GruxRjLR3u9fNT1OjonmEvGnfw4J9pQvL6dZxo6368r3OEblwYxJcdF4U4/757mcI698cxg6vRUnI6trPrFv7P1eD02lLylf01hxjiSxkFNXeCRpRvfoDR7MUkc4oONxac5ICIiIiJyoVFYpDOorFzrYWXX65kzgrlvvGH1O+08UTfIPYuxDtkONB/2dQdFAL/Hz5uHLbPGG/JiYW1t/7NZ3tnfGRSPn3tDmeX2dENG3DDeg3cLz//LV4+/6tnetpPi0nZmzUokPhGo6H/kAbau7Qw2AMY2sWP9ZppmLiYpPRvoCjeJGSS6wb99HRtrvN3j0L5/NdsOXUlK1unXPhymwc8r9XS/ZW+z5Z0jMCXZkBYBNJ1mv2NuPB0cB/B34O11NasxbZSs/jUl/erszbPvOR770XNDHAERERERudApLJ4ulyUEqPUE7mrwABhCXQMfWt9/NqrJz4bDkFAHjrW9Lm0cGmsiSZs5nwnpiUSFB3cvohmV4QJcOAPW00BDfb9NNbvZui2WuIMNGNt1KWdUJGFAS2Ndn/qMaaC+YfSeEetrtzT3qcfS2G4BQ2jw8PoeW+NZwa5tNRQWzeb6r3+DSbv2UVV1iKqK3ZQfPIZ3mPdnioiIiIj0p7B4uow5+aIOp/j73Xj8PPmBv7vf02GD8rjs3i+zMDMMZ4A+7BAuxzSNH/La7z/sV0/n+x2oGzPg1nPbWBtPY3yUvfggT7UsY+HFBUxbOIkZXX111O9h03P/zatbqk77Hk0RERERkf4UFk+XtSePSGcxQyUsWsHCzFCOffw4f352A4cb2ruDw4RbH2LFxcM8gc+HFwh29f3KWOvgcjkDH3MOG4vjafy17HntUYpXG4Kjk0lKHU/GxHkULpxO4e33UH/wATYcGWZdIiIiIiJdzr9f+WeLz9AORLkDd0W7ASxtJ1l6Y6RYa0hJT8dwmG2vrqGy0dMdbKx1CAkZ5vWYALW1NABhqeOJ7j2t5uSQmnp+zWaN9fE0xuJtPMyh4o2898Kv+PPbVeDKJjt3BOoSEREREemisHi6jllK/BCR4qIotOfHvuN2WJJiwGfZO8CTKc8EYyzNTY3AODLyEjG9woc7cymz8ga5eXIoGrZRcsgPGVew/OpZJEaG4o7OZubNNzEx+Cyl4rNkLI6nDZ/PDV//J/7mzsuIMb2nrIOJiAwBPLS1DPw5uPOu585/eJBvfPubLM4LG37tIiIiInJB0GWop6vDz8q9hkkTHe5Z7OaSGj/1GHISHJKDLaW7faz3csr3LQ5X+cZ1HC68jpxl/8i9M3dx8JiH4OhMssa3U76/ESYNr39jKnnnuVeZ/LmryLr8S3zx8s7t7Qde5P2yXBZOG17/Nsrhrhyn+wsZHNX5NznNxd1R3a14b7uX7b4zP6hjbjybd7L/6C3MmH4rn//6TEoOHMHjdxOemEtOdiz+I2+zZY+fgb5wOfMuJzshDJhIYeFE3tq3ZXjFi4iIiMgFQWHxNBlj2bfbx4/aYHm2IT/JIQRDfbOf13f4eLrcj+8sPmzEV/EiTz7SypIri8hNmcaUjHYaK3ex4fdPcWD6d4ebbQDwljzDoz/byUWzC0iMgtaqnXy0cSsZt189/M4jHBaNdwjqN2ax41ws6lpv0Vo/lcWw/SxMZI618TSmni1P/Ay7dDnzpueSP2sybry0Nh2lassLrP/LKvZ7Bv6+lX24jkP5i0kwlWzatGcEKhcRERGRC4GZNWfuoI9hmZCbDcCOHTvOWkFy7im46zcsL6hkzb99n7U159f9i6NB4ykiIiIiY4HuWZRhsTaVhEQD/iPUHR3tas59Gk8RERERGSt0GaqcMmsjyL/8JiaPO74liLCUyeQnQ9OWd9lzFu/RPB9oPEVERERkLFNYlCEII7XgE8zO7FpGwu+lvbGaivXP8+pf3qdNC8IPkcZTRERERMYu3bMoIiIiIiIiAXTPooiIiIiIiARQWBQREREREZEACosiIiIiIiIS4IINi5GRkURGRo52GSIiIiIiImPSBRsWRUREREREZHAKiyIiIiIiIhJAYVFEREREREQCKCyKiIiIiIhIAIVFERERERERCaCwKCIiIiIiIgFOKSy6XK4zXYeIiIiIiIiMIScMi9Za/H4/ubm5hISEnK2aRE6bDYone94ybrhiBi5rR7scOU9Y6yL/irtZMm8yMUH6XomIiMiFIWiwHfHj4jDGYIzBcRxycnKoqKigubn5bNYnY5ANm8nchTeQZHfz0Tv/w6E2M9olARCRexXX3vIpJieE4N/5GC+OdkFyHjFEjJ9H0ZQFFC75iLf/9BjvlDSOdlEiIiIiZ5QrNS39B/03jouLZVxcLNZaDhw4gDGG0NBQYmJi8Hq9tLW1jUatI8rtdgPg8XhGuZJzT3DO7SyZMoHwqFxCG19j/1HvaJdE+KQV3HnPNYwPqmTzi7/l6VUf0uofGyFWzn3G+KnctoHyxhAyphZSMHcGYRUfsO+I/v0hIiIi56+AsBgfF8O4uDistVRUVNDU1ERDQwPGGCIiIoiKisIYc87PMCosnj6fN5zEzImEduxi18frOOoZuVBmbRIzrn2QpfOyaNjyHsfMyfu2kQu4+YvLybT7eO3hn/DGjhraBwiK1sYw7TMTmTIlhIZt9bQSxeRbJzHtonBaPq6jpde5bHQSc2/OJS+unfKy9j79JF5awMWfiMWW1VLfPvT3Hjwpl6KrM8mekdz9v6zpcbgqa6hrCexvqO1P11DG50Jk/C0cq9jCR7s8ZM8pZOr0FI68v5Gajgt7XEREROT81X0ZqrWW+HGxxPULisdVV1fj8XhITU0lISEBt9vNwYMHsbov7IJjGt7g9WfeOP5qVGux1pBz5XLywzzsX/kI71b6TtR6kC1n9zvsP1bPoT09/5HCnRhLfMzItT99Y2N8xjpf5Ss883IBX1o2k08unciOZ4qxF3iQFhERkfNTEEBoiJv4cXGEhYV1X3raOyged+zYMTo6OsjMzCQ6OpqQkBCampqoqqo664WLAOBMoWB6LLSsZ/27RzlxeLX4fYDXR2ek9OP3Ao7FfxZKPc5XdYQ9vf4vEzc/+oThb6jtT9/YGJ9zQf27r7Bj6SRmzFhA1rPFlCpPi4iIyHkoCCAsLJSwsDAADhw4QGPj4A9uaG5uZv/+/YwfPx632018fLzC4hhgY27g+uuuJar8UZ4pTqRw1qWkxEZjPNVUl77E+5veo8n2uszSJlBw9QPMiv+IdSvXM27BcvISknDTyLGqjWz7YCXlTb5e7ZOYce2/cFF83zB2+P2vs3pXwwnrea4kk3kXzScxMhRvSyU1+5/j/W3baO2qx9rJLPj018gP6933TIrufJSik50rKZ/MCPBu3Umpn5NMdPrxddAnDPm8gPEzEnddWmuIyE4ia3IssbHBBOGnva6Jql2HKS9rP+uzT9Y6RE1IJis/huiYYIKMD8+xFmqLD1O6rxVfQD1ndnyGytowUmZfSdHCOaQnjiPc1UpjbTl73n2etRv3d39/OtsmcOlXH2Bx2kf8+YH1pN26nBlZSYTaRmr3bWTdCyvZWdt31tmaOCYuXcHiwskkRkBL9R62rHqc6sIHuHF6NWt/+o+sqR7kM/PtpKTEy4yCPLKToFT/ChQREZHzUBDQfSnpsWPHThgUj2tvb6ekpITk5GRiY2PPbIUyNO55fKIoA1fNPg42RxKXPIn0KfcQ7TTwwsad+AMCQhQTLrmHmKBiqg5U4o6dSErGUi4dN441L/6Giu77EVs4Uv42e452vnJFF5CbHHcK9SxgwSVpuKr3cKA+ivi0iYyf+WVi3D/lxQ/2dAWoemoq3icoGCCEmNQZxIXUUV26l5ZeXR071hHYf0wMEUBLQ90A760/P94OoMN2hSEvPk/n3+GGIWsNEVNzmT07HNPeTt2hejoIIio5mqyiKGLC97F1Z+tZC4zWWqJm5nLR9DCcjnbqKo/hsUFEp0SRviCC6Ih9fPRx/3rO3PgMvX4X6Uvv47NLs3E1H6Bs7yaaiSAxdyqFN08lL+VBHnl2F94Bvs+zb7+HBHcxpdsrCUudSPbUpdyUOY6nf/Ybdrcc/w8UhpQrv8wtl6fjtNdQtnM/Ta4kZt5+D9WHT16fMT7q6xuBaCJiAIVFEREROQ/1WTqjo2OAH+OD8Pl8Q2ovZ4eJj6b6te/xcddTGk3YfC791N1k5n+KvC072dP/eT4mh7D6B3lh4y46jMHaSLKKvs+l2XMoyE+mYnt1ZzPTxKFtj3Go67DQyd86pbBo4iOoWv09th7tPLETcRlLPnUbqZOuImvTHkotGFPJvvd+yz6Oz2DOIC6kguJ1j1B6snAVEoIbaPGcyhN6vV0zZ8dnyvx4vYDjH/5llsHR5EwPx2mqY8uqCuq7HnpigyOYeE0uqTOTSNhbRs3ZSl3ucWRPDcNpa2TXX8qobun8D0ImLIYp144nYVoKSTv3U9WnnjM4PkMVXMDF85LwVb7FUw8/QWnX8iw2dArXfe0+Zl1yDdNf2cXm/h+7k0NU5YM8vHIXHmOwJpKpd3yfm2fOoWhBMrtf7/w+45pN0aXpOB17Wf3Qz9nQNevozr6Ju76Qf0olejztQDRuLUErIiIi56kB11mcOnXqoAfs2LHjjBUjw2eOvMfO2nboClm2dQPFFbeSOSGV2Figuv8RB9i/szMoQmcoLNu9mZbsxcTFZw90wNDqObqRXUd66vE1raHk8C2kZiYRHQ3UD6v7odViOij/y1bKO19g8HPota2dAXiQUOqMz2LRZwK3BzzXKT6C6GBo3XOkOygCmI5mKsvbSZ0aQXQc1NSM0Js5mfgIolzQUVrbHRQBbGs9lQe8JOSFEZ0AVb1m0U5nfM4U493C8//y1eOvera37aS4tJ1ZsxKJTwQq+h95gK1rO4MigLFN7Fi/maaZi0lK7/V9Tswg0Q3+7evYWOPtfn/t+1ez7dCVpGSdyXcnIiIicm4YMCzKucvvaegOfse1tzUCiYQMOAPSQGtLv01NuykrjyXiSAPG2mFdOulv71uPMT7aPW1ACMHBp93tWWMbGqms6juDHpIcx7iofg3dLlwASQnkz+ubJF2xQYBDUOiZrLSfYIMLaGsNnMr0tPoAN84YH39rIkmbOZ8J6YlEhQfjdG2PynABLhzXQEc10ND/P0DU7GbrtljiDvb6PkdFEga0NPa9fNmYBuob9DgfERERERgkLGr28MJmWj/kw7Ufdr0Y40sCWH/nwg5nqE577Ch73uubPhIvjQ0Mi3TOf7kT40hLHKAfe/YDyBj/5E7IBuVx2b1fZmFmGM4An+1QVuwxjR/y2u/7f58NhoEXBTGnulSIMYB/SLWIiIiInEs0syjntnYPHUBoeMRoV4IF6jfv5KPtg93Le5afhnpWzzayEhatYGFmKMc+fpw/P7uBww09T5OdcOtDrLh4mCfw+fACwa6+/wq01sHlcgY+pp/w8AigjfZTuV32/7d3dzFtnXccx3/HNgaDMSa8GMZbwktCEjoKUViqNoq6pcuilHZVu03tTaWqUtXubneTpu1m06RpmjZtN1l3s2ldtF2sapW0FdI0NSlJRKa0SUhCmoT3hBcTcLAN2GA/uyBJEQcKhQAx/X6uwJxz/JwjX/Dz8zz/PwAAQApa3n9FSBkOt09p86Y60jOyJUUVi23MmNbU0JBGJWUWlihrI6d44rPtJtwZj8jaznsVTdM89u+D3B6npMRsMZtHkDGWikpKZGlQ7S0fayAcfxAUjXEoPf0hPOOREY1L8hSXyzf3c+PYpuLipUO9MT4FAlmSRjRGJVQAALBJERY3GZPfpJ157ge/W5592l6WJSUHFApt4MCWLaJ4XJKylO5ZxuF3r6gnKFnljdq9Jo3ql2k0orvTUkZ5nra45xSUsdwqe2aXnvxRpb6RuXCYjccSkpxKz1xwE97Kjh+JajwhpZXkqzBzzp48T46KS11SYkLjI8t6u3VnWUbRSFjSFpVWFciaE+bcZd9VQ9XyntOXGm9X5+2kVPqMXjjcoAJvhty+rap/6UVtT0ssfb6/STvKLCl4TTftbUYBAAA2BZahbjIzwbsq/M4vdSh4Q5FktnIDO+RPNwpfO66bMa14JaTJ3a9v7dj24NsFpy9fkpRd/gPt89+fogqq+38faHBm5cstLWtCg0P9ShZVqf7gTxQIRe61bYjq1mfvqCtizTu+X+fP3lBTc7WeaG7Upb+f1+RG7LOMh9V9aUK5jX7tbs7Q2PCU4kmHMvK98nstTd4IajiqBZ//RF9IkzsLld9UpV2lUU0n7j/lCQ2cvaPIvPtZ1vHTIfVczlPuN7NV+2yNAgOTisslX5FXHndS4xeGFZxeeDxflclz6o9POOWT0ZlzcR0dWv1Fe9tOabCpWdu+/3O9Vd+hW6G40nxlqiiPqbcrLO1Y3fUta0Ct77Wo9vXvqeLgj/XmwdnXY/3Hda6nUk/uXvxcY7za1XxIZY4Z9Zw5qeCjvq8XAABghVyS5L7XKMzrzZbT9cUSry25fklScJF6/5mZmWs9PnxVU6fV+kmfmhqeUmmOT4oP6vbVE2o737GMpvVfwlur6uq9cs67RlZgn2oCsz8b06XQhQ80uMpegqHLb+t0xst6rLxSZVvT5bAsGTOqyY531BWxHz/6yT/U2vBTHXj8Nb0yPqN/nbiocHKdWz1YRtErnfp0olAVtX75i3PkVEKx8ahuXR5W7/XoAg3kZyWDw2pvtVRZ55e/Ik9pzvtLLl0Knb2j+be8nOMtyyh8sVOfTgRUsT1H/pIcOZVUPDSuW58Pq/vmxKqq3M61Nd+hHMuSiSbUMqiHEkATfcd17M+TevrQflUW7dbO0pjCAx06+9d/qv+xn602K0qSZjr/rb/89qoeb6xTQbY0OXRVn7VdUukrhxc9xzhyVXPkTT1Xn6N4/3v6qDWo1C4lBAAAsDirYc9eU1JcJI9n5XX9U7F6qtfrlSRFIgukjxRkcp7Xc81H5O15W8dOndvo4aw7k12vI2+8rj0Bt2LBy2r/77v6qK13dQEZSzLGqHl/ul7yG12/MqNfdaZyWZ1Zda8e1Qt1A/r4N7/QyeAXeyWLml7Wt59uUlWBR9NDp/Tu0b/p8zCfLwAAsHm5JGl0LCTPlD0sLjWziEeP9TUNR1b4gk784dfqO/xDHdhXpz0NF9XS1is65q0xl1O7fJJmjP7Tm1Sqz7IZU6z8AktK3tHY6Ny/OFXacEDV/hF1njymlg/PKLiK5dYAAACpwCVJk1NTmpyy138nLCKVWNO3den936u9pVAVRSIorgNXgUNVDmm0J6G2h7QHcr0Yk6Wagy+qdsv9V1zyFNWqJiBFLpzR9RnNuZ+Eulp+pz8NXtPYlFFK3SgAAMAKUeAGm46ZGlZ3t+Y0YMdaqS2wlG6MjnclU3DJr0fFdU+psezeUtPkjGLhYfWdfl8tH57T1Jz7saykRrs7NmqgAAAAG8Jq2LN30U1G1ZVbJaXmnsSlbLY9iwAAAADwMNFnEQAAAABgQ1gEAAAAANgQFgEAAAAANl/bAjfsVQQAAACAxTGzCAAAAACwISwCAAAAAGwIiwAAAAAAG8IiAAAAAMCGsAgAAAAAsCEsAgAAAABsCIsAAAAAABvCIgAAAADAhrAIAAAAALAhLAIAAAAAbAiLAAAAAAAbwiIAAAAAwIawCAAAAACwISwCAAAAAGwIiwAAAAAAG8IiAAAAAMDm/3AC5hNQhBB5AAAAAElFTkSuQmCC;" parent="1" vertex="1"><mxGeometry x="-30" y="10" width="907" height="671" as="geometry"/></mxCell><mxCell id="QXStlDiSbk9Rq0q8Sx9F-10" value="" style="endArrow=classic;html=1;rounded=0;" parent="1" target="QXStlDiSbk9Rq0q8Sx9F-1" edge="1"><mxGeometry width="50" height="50" relative="1" as="geometry"><mxPoint x="10" y="500" as="sourcePoint"/><mxPoint x="-30" y="490" as="targetPoint"/></mxGeometry></mxCell><mxCell id="QXStlDiSbk9Rq0q8Sx9F-11" value="" style="html=1;shadow=0;dashed=0;align=center;verticalAlign=middle;shape=mxgraph.arrows2.arrow;dy=0.6;dx=40;direction=north;notch=0;" parent="1" vertex="1"><mxGeometry x="530" y="20" width="20" height="410" as="geometry"/></mxCell><mxCell id="QXStlDiSbk9Rq0q8Sx9F-13" value="" style="edgeStyle=orthogonalEdgeStyle;rounded=0;orthogonalLoop=1;jettySize=auto;html=1;" parent="1" source="QXStlDiSbk9Rq0q8Sx9F-12" target="QXStlDiSbk9Rq0q8Sx9F-11" edge="1"><mxGeometry relative="1" as="geometry"/></mxCell><mxCell id="QXStlDiSbk9Rq0q8Sx9F-12" value="" style="html=1;shadow=0;dashed=0;align=center;verticalAlign=middle;shape=mxgraph.arrows2.arrow;dy=0.6;dx=40;flipH=1;notch=0;" parent="1" vertex="1"><mxGeometry x="350" y="10" width="190" height="30" as="geometry"/></mxCell><mxCell id="QXStlDiSbk9Rq0q8Sx9F-14" value="" style="html=1;shadow=0;dashed=0;align=center;verticalAlign=middle;shape=mxgraph.arrows2.arrow;dy=0.6;dx=40;notch=0;" parent="1" vertex="1"><mxGeometry x="220" y="440" width="320" height="20" as="geometry"/></mxCell><mxCell id="QXStlDiSbk9Rq0q8Sx9F-15" value="" style="html=1;shadow=0;dashed=0;align=center;verticalAlign=middle;shape=mxgraph.arrows2.arrow;dy=0.6;dx=40;flipH=1;notch=0;" parent="1" vertex="1"><mxGeometry x="30" y="100" width="100" height="20" as="geometry"/></mxCell><mxCell id="QXStlDiSbk9Rq0q8Sx9F-16" value="" style="html=1;shadow=0;dashed=0;align=center;verticalAlign=middle;shape=mxgraph.arrows2.arrow;dy=0.78;dx=20;direction=south;notch=0;" parent="1" vertex="1"><mxGeometry x="10" y="110" width="40" height="200" as="geometry"/></mxCell><mxCell id="QXStlDiSbk9Rq0q8Sx9F-21" value="" style="html=1;shadow=0;dashed=0;align=center;verticalAlign=middle;shape=mxgraph.arrows2.arrow;dy=1;dx=56.95;flipH=1;notch=0;" parent="1" vertex="1"><mxGeometry x="20" y="360" width="100" height="30" as="geometry"/></mxCell><mxCell id="QXStlDiSbk9Rq0q8Sx9F-22" value="" style="html=1;shadow=0;dashed=0;align=center;verticalAlign=middle;shape=mxgraph.arrows2.arrow;dy=1;dx=71.43;direction=south;notch=0;" parent="1" vertex="1"><mxGeometry y="380" width="30" height="190" as="geometry"/></mxCell></root></mxGraphModel></diagram></mxfile>